G04 Layer_Color=65535*
%FSLAX25Y25*%
%MOIN*%
G70*
G01*
G75*
%ADD27C,0.00600*%
%ADD28C,0.01000*%
%ADD51C,0.00984*%
%ADD52C,0.00295*%
%ADD53C,0.00492*%
%ADD54C,0.00787*%
%ADD55C,0.00394*%
%ADD56C,0.00250*%
D27*
X61600Y96100D02*
G03*
X64100Y93600I2500J0D01*
G01*
Y82500D02*
Y86600D01*
Y82500D02*
Y96100D01*
X44100D02*
X64100D01*
X44100Y82500D02*
Y96100D01*
Y82500D02*
X64100D01*
D28*
X16807Y36508D02*
X30193D01*
X16807D02*
Y54224D01*
X30193D01*
Y36508D02*
Y54224D01*
X88709Y14874D02*
X92646D01*
X2094Y1094D02*
Y12905D01*
Y1094D02*
X93827D01*
Y12905D01*
X2094D02*
X93827D01*
X1000Y80000D02*
X16000D01*
Y48000D02*
Y80000D01*
X1000Y48000D02*
X16000D01*
X1000D02*
Y80000D01*
Y46500D02*
X16000D01*
Y14500D02*
Y46500D01*
X1000Y14500D02*
X16000D01*
X1000D02*
Y46500D01*
X80500D02*
X95500D01*
Y14500D02*
Y46500D01*
X80500Y14500D02*
X95500D01*
X80500D02*
Y46500D01*
D51*
X57323Y15264D02*
G03*
X57323Y15264I-492J0D01*
G01*
X45870Y61972D02*
G03*
X45870Y61972I-492J0D01*
G01*
X10724Y95890D02*
G03*
X10724Y95890I-492J0D01*
G01*
X86252Y66612D02*
G03*
X86252Y66612I-492J0D01*
G01*
D52*
X37000Y53900D02*
X42500D01*
Y46200D02*
Y53900D01*
X37000Y46200D02*
X42500D01*
X37000D02*
Y53900D01*
X700Y95500D02*
X6200D01*
Y87800D02*
Y95500D01*
X700Y87800D02*
X6200D01*
X700D02*
Y95500D01*
X75700Y27754D02*
Y29723D01*
X73731Y27754D02*
X75602Y25786D01*
X73731Y27754D02*
X77570D01*
X75602Y25786D02*
X77570Y27754D01*
X74224Y25786D02*
X77176D01*
X72846Y20865D02*
X78653D01*
X72846D02*
Y34546D01*
X78653D01*
Y20865D02*
Y34546D01*
D53*
X75126Y95437D02*
X90874D01*
X75126Y93075D02*
Y95437D01*
X90874Y93075D02*
Y95437D01*
Y76996D02*
Y78571D01*
X75126Y76996D02*
X90874D01*
X75126D02*
Y78965D01*
Y93075D02*
X78669D01*
X81032Y95437D01*
X80244D02*
X81032D01*
X77882Y93075D02*
X80244Y95437D01*
X79457Y95437D02*
Y95437D01*
X77095Y93075D02*
X79457Y95437D01*
X78669D02*
X79457D01*
X76307Y93075D02*
X78669Y95437D01*
X75913Y93075D02*
X76307D01*
X75913D02*
Y93468D01*
X77882Y95437D01*
X77488D02*
X77882D01*
X75126Y93075D02*
X77488Y95437D01*
X75126Y93075D02*
Y93862D01*
X76701Y95437D01*
X75913D02*
X76701D01*
X75126Y94650D02*
X75913Y95437D01*
X77488Y97012D02*
X78276D01*
D54*
X58209Y17823D02*
Y18512D01*
X55551Y17823D02*
X58209D01*
Y32488D02*
Y33177D01*
X55551D02*
X58209D01*
X46791D02*
X49449D01*
X46791Y32488D02*
Y33177D01*
Y17823D02*
Y18512D01*
Y17823D02*
X49449D01*
X47937Y61283D02*
Y62563D01*
X49216D01*
X47937Y45437D02*
Y46716D01*
Y45437D02*
X49216D01*
X65063D02*
Y46716D01*
X63784Y45437D02*
X65063D01*
Y61283D02*
Y62563D01*
X63784D02*
X65063D01*
X15154Y82898D02*
X21847D01*
X15154Y95102D02*
X21847D01*
Y82898D02*
Y95102D01*
X15154Y82898D02*
Y95102D01*
X90091Y56966D02*
Y65234D01*
X88910Y56966D02*
Y65234D01*
Y56966D02*
X90091D01*
X88910Y65234D02*
X90091D01*
D55*
X59453Y68398D02*
Y80602D01*
X53547Y68398D02*
X59453D01*
X53547D02*
Y80602D01*
X59453D01*
D56*
X32700Y46399D02*
Y46066D01*
X33366Y45400D01*
X34033Y46066D01*
Y46399D01*
X33366Y45400D02*
Y44400D01*
X34699Y46066D02*
X35033Y46399D01*
X35699D01*
X36032Y46066D01*
Y45733D01*
X35699Y45400D01*
X35366D01*
X35699D01*
X36032Y45066D01*
Y44733D01*
X35699Y44400D01*
X35033D01*
X34699Y44733D01*
X74533Y75699D02*
X73866D01*
X74200D01*
Y74033D01*
X73866Y73700D01*
X73533D01*
X73200Y74033D01*
X76532Y73700D02*
X75199D01*
X76532Y75033D01*
Y75366D01*
X76199Y75699D01*
X75533D01*
X75199Y75366D01*
X51733Y75566D02*
X51400Y75899D01*
X50733D01*
X50400Y75566D01*
Y74233D01*
X50733Y73900D01*
X51400D01*
X51733Y74233D01*
X52399Y73900D02*
X53066D01*
X52733D01*
Y75899D01*
X52399Y75566D01*
X76454Y55665D02*
X76121Y55998D01*
X75454D01*
X75121Y55665D01*
Y54332D01*
X75454Y53999D01*
X76121D01*
X76454Y54332D01*
X78453Y53999D02*
X77120D01*
X78453Y55332D01*
Y55665D01*
X78120Y55998D01*
X77453D01*
X77120Y55665D01*
X72133Y53266D02*
X71800Y53599D01*
X71133D01*
X70800Y53266D01*
Y51933D01*
X71133Y51600D01*
X71800D01*
X72133Y51933D01*
X74132Y53599D02*
X72799D01*
Y52600D01*
X73466Y52933D01*
X73799D01*
X74132Y52600D01*
Y51933D01*
X73799Y51600D01*
X73133D01*
X72799Y51933D01*
X38333Y66966D02*
X38000Y67299D01*
X37333D01*
X37000Y66966D01*
Y65633D01*
X37333Y65300D01*
X38000D01*
X38333Y65633D01*
X38999Y66966D02*
X39333Y67299D01*
X39999D01*
X40332Y66966D01*
Y66633D01*
X39999Y66300D01*
X40332Y65966D01*
Y65633D01*
X39999Y65300D01*
X39333D01*
X38999Y65633D01*
Y65966D01*
X39333Y66300D01*
X38999Y66633D01*
Y66966D01*
X39333Y66300D02*
X39999D01*
X49433Y40866D02*
X49100Y41199D01*
X48433D01*
X48100Y40866D01*
Y39533D01*
X48433Y39200D01*
X49100D01*
X49433Y39533D01*
X50099D02*
X50433Y39200D01*
X51099D01*
X51432Y39533D01*
Y40866D01*
X51099Y41199D01*
X50433D01*
X50099Y40866D01*
Y40533D01*
X50433Y40200D01*
X51432D01*
X81133Y56366D02*
X80800Y56699D01*
X80133D01*
X79800Y56366D01*
Y55033D01*
X80133Y54700D01*
X80800D01*
X81133Y55033D01*
X81799Y54700D02*
X82466D01*
X82133D01*
Y56699D01*
X81799Y56366D01*
X83465D02*
X83799Y56699D01*
X84465D01*
X84798Y56366D01*
Y55033D01*
X84465Y54700D01*
X83799D01*
X83465Y55033D01*
Y56366D01*
X32133Y59066D02*
X31800Y59399D01*
X31133D01*
X30800Y59066D01*
Y57733D01*
X31133Y57400D01*
X31800D01*
X32133Y57733D01*
X32799Y57400D02*
X33466D01*
X33133D01*
Y59399D01*
X32799Y59066D01*
X34466Y57400D02*
X35132D01*
X34799D01*
Y59399D01*
X34466Y59066D01*
X32133Y33166D02*
X31800Y33499D01*
X31133D01*
X30800Y33166D01*
Y31833D01*
X31133Y31500D01*
X31800D01*
X32133Y31833D01*
X32799Y31500D02*
X33466D01*
X33133D01*
Y33499D01*
X32799Y33166D01*
X35798Y31500D02*
X34466D01*
X35798Y32833D01*
Y33166D01*
X35465Y33499D01*
X34799D01*
X34466Y33166D01*
X74100Y37299D02*
Y35300D01*
X75100D01*
X75433Y35633D01*
Y36966D01*
X75100Y37299D01*
X74100D01*
X77432Y35300D02*
X76099D01*
X77432Y36633D01*
Y36966D01*
X77099Y37299D01*
X76433D01*
X76099Y36966D01*
X64400Y73600D02*
Y75599D01*
X65400D01*
X65733Y75266D01*
Y74600D01*
X65400Y74266D01*
X64400D01*
X65066D02*
X65733Y73600D01*
X66399D02*
X67066D01*
X66733D01*
Y75599D01*
X66399Y75266D01*
X17000Y63000D02*
Y64999D01*
X18000D01*
X18333Y64666D01*
Y64000D01*
X18000Y63666D01*
X17000D01*
X17666D02*
X18333Y63000D01*
X20332D02*
X18999D01*
X20332Y64333D01*
Y64666D01*
X19999Y64999D01*
X19333D01*
X18999Y64666D01*
X36400Y80800D02*
Y82799D01*
X37400D01*
X37733Y82466D01*
Y81800D01*
X37400Y81466D01*
X36400D01*
X37066D02*
X37733Y80800D01*
X38399Y82466D02*
X38733Y82799D01*
X39399D01*
X39732Y82466D01*
Y82133D01*
X39399Y81800D01*
X39066D01*
X39399D01*
X39732Y81466D01*
Y81133D01*
X39399Y80800D01*
X38733D01*
X38399Y81133D01*
X36500Y92500D02*
Y94499D01*
X37500D01*
X37833Y94166D01*
Y93500D01*
X37500Y93166D01*
X36500D01*
X37166D02*
X37833Y92500D01*
X39832Y94499D02*
X38499D01*
Y93500D01*
X39166Y93833D01*
X39499D01*
X39832Y93500D01*
Y92833D01*
X39499Y92500D01*
X38833D01*
X38499Y92833D01*
X21000Y25300D02*
Y27299D01*
X22000D01*
X22333Y26966D01*
Y26300D01*
X22000Y25966D01*
X21000D01*
X21666D02*
X22333Y25300D01*
X24332Y27299D02*
X23666Y26966D01*
X22999Y26300D01*
Y25633D01*
X23333Y25300D01*
X23999D01*
X24332Y25633D01*
Y25966D01*
X23999Y26300D01*
X22999D01*
X50400Y66499D02*
Y64833D01*
X50733Y64500D01*
X51400D01*
X51733Y64833D01*
Y66499D01*
X52399Y64500D02*
X53066D01*
X52733D01*
Y66499D01*
X52399Y66166D01*
X21500Y57499D02*
Y57166D01*
X22166Y56500D01*
X22833Y57166D01*
Y57499D01*
X22166Y56500D02*
Y55500D01*
X23499D02*
X24166D01*
X23833D01*
Y57499D01*
X23499Y57166D01*
X2000Y86999D02*
Y86666D01*
X2667Y86000D01*
X3333Y86666D01*
Y86999D01*
X2667Y86000D02*
Y85000D01*
X5332D02*
X3999D01*
X5332Y86333D01*
Y86666D01*
X4999Y86999D01*
X4333D01*
X3999Y86666D01*
X17500Y81999D02*
Y80333D01*
X17833Y80000D01*
X18500D01*
X18833Y80333D01*
Y81999D01*
X20832Y80000D02*
X19499D01*
X20832Y81333D01*
Y81666D01*
X20499Y81999D01*
X19833D01*
X19499Y81666D01*
X80800Y67599D02*
Y65933D01*
X81133Y65600D01*
X81800D01*
X82133Y65933D01*
Y67599D01*
X82799Y67266D02*
X83133Y67599D01*
X83799D01*
X84132Y67266D01*
Y66933D01*
X83799Y66600D01*
X83466D01*
X83799D01*
X84132Y66266D01*
Y65933D01*
X83799Y65600D01*
X83133D01*
X82799Y65933D01*
X90500Y10500D02*
Y12499D01*
X91833Y10500D01*
Y12499D01*
X92499Y10500D02*
X93166D01*
X92833D01*
Y12499D01*
X92499Y12166D01*
X56000Y35999D02*
Y34333D01*
X56333Y34000D01*
X57000D01*
X57333Y34333D01*
Y35999D01*
X59332D02*
X57999D01*
Y35000D01*
X58666Y35333D01*
X58999D01*
X59332Y35000D01*
Y34333D01*
X58999Y34000D01*
X58333D01*
X57999Y34333D01*
X18833Y76166D02*
X18500Y76499D01*
X17833D01*
X17500Y76166D01*
Y75833D01*
X17833Y75500D01*
X18500D01*
X18833Y75166D01*
Y74833D01*
X18500Y74500D01*
X17833D01*
X17500Y74833D01*
X19499Y76499D02*
Y74500D01*
X20166Y75166D01*
X20832Y74500D01*
Y76499D01*
X21499Y74500D02*
X22165D01*
X21832D01*
Y76499D01*
X21499Y76166D01*
X18333Y17166D02*
X18000Y17499D01*
X17333D01*
X17000Y17166D01*
Y16833D01*
X17333Y16500D01*
X18000D01*
X18333Y16166D01*
Y15833D01*
X18000Y15500D01*
X17333D01*
X17000Y15833D01*
X18999Y17499D02*
Y15500D01*
X19666Y16166D01*
X20332Y15500D01*
Y17499D01*
X22332Y15500D02*
X20999D01*
X22332Y16833D01*
Y17166D01*
X21998Y17499D01*
X21332D01*
X20999Y17166D01*
X75433Y45866D02*
X75100Y46199D01*
X74433D01*
X74100Y45866D01*
Y45533D01*
X74433Y45200D01*
X75100D01*
X75433Y44866D01*
Y44533D01*
X75100Y44200D01*
X74433D01*
X74100Y44533D01*
X76099Y46199D02*
Y44200D01*
X76766Y44866D01*
X77432Y44200D01*
Y46199D01*
X78099Y45866D02*
X78432Y46199D01*
X79098D01*
X79432Y45866D01*
Y45533D01*
X79098Y45200D01*
X78765D01*
X79098D01*
X79432Y44866D01*
Y44533D01*
X79098Y44200D01*
X78432D01*
X78099Y44533D01*
X65733Y95899D02*
X65066D01*
X65400D01*
Y94233D01*
X65066Y93900D01*
X64733D01*
X64400Y94233D01*
X66399Y95566D02*
X66733Y95899D01*
X67399D01*
X67732Y95566D01*
Y95233D01*
X67399Y94900D01*
X67066D01*
X67399D01*
X67732Y94566D01*
Y94233D01*
X67399Y93900D01*
X66733D01*
X66399Y94233D01*
X26100Y17200D02*
Y19199D01*
X27100D01*
X27433Y18866D01*
Y18200D01*
X27100Y17866D01*
X26100D01*
X26766D02*
X27433Y17200D01*
X29099D02*
X28433D01*
X28099Y17533D01*
Y18200D01*
X28433Y18533D01*
X29099D01*
X29432Y18200D01*
Y17866D01*
X28099D01*
X30099Y18533D02*
X30765Y17200D01*
X31432Y18533D01*
X35430Y17200D02*
X34097D01*
X35430Y18533D01*
Y18866D01*
X35097Y19199D01*
X34431D01*
X34097Y18866D01*
X36097Y17200D02*
Y17533D01*
X36430D01*
Y17200D01*
X36097D01*
X37763Y18866D02*
X38096Y19199D01*
X38763D01*
X39096Y18866D01*
Y17533D01*
X38763Y17200D01*
X38096D01*
X37763Y17533D01*
Y18866D01*
X26100Y16499D02*
Y14500D01*
X26766Y15167D01*
X27433Y14500D01*
Y16499D01*
X29099Y14500D02*
X28433D01*
X28099Y14833D01*
Y15500D01*
X28433Y15833D01*
X29099D01*
X29432Y15500D01*
Y15167D01*
X28099D01*
X30099Y14500D02*
X30765D01*
X30432D01*
Y15833D01*
X30099D01*
X31765Y14500D02*
X32765D01*
X33098Y14833D01*
X32765Y15167D01*
X32098D01*
X31765Y15500D01*
X32098Y15833D01*
X33098D01*
X33764Y16499D02*
X35097D01*
X34431D01*
Y14500D01*
X36763D02*
X36097D01*
X35763Y14833D01*
Y15500D01*
X36097Y15833D01*
X36763D01*
X37096Y15500D01*
Y15167D01*
X35763D01*
X37763Y14500D02*
Y16499D01*
Y15167D02*
X38763Y15833D01*
X37763Y15167D02*
X38763Y14500D01*
X41095Y16499D02*
X39762D01*
Y14500D01*
X41095D01*
X39762Y15500D02*
X40429D01*
X41762Y14500D02*
Y15833D01*
X42761D01*
X43095Y15500D01*
Y14500D01*
X44427Y13834D02*
X44761D01*
X45094Y14167D01*
Y15833D01*
X44094D01*
X43761Y15500D01*
Y14833D01*
X44094Y14500D01*
X45094D01*
X17300Y19900D02*
Y21899D01*
X18633Y19900D01*
Y21899D01*
X19299Y21233D02*
Y20233D01*
X19633Y19900D01*
X20632D01*
Y21233D01*
X21299Y19900D02*
Y21233D01*
X21632D01*
X21965Y20900D01*
Y19900D01*
Y20900D01*
X22298Y21233D01*
X22632Y20900D01*
Y19900D01*
X23298D02*
X23965D01*
X23631D01*
Y21233D01*
X23298D01*
X26297Y21566D02*
X25964Y21899D01*
X25297D01*
X24964Y21566D01*
Y20233D01*
X25297Y19900D01*
X25964D01*
X26297Y20233D01*
X26963Y19900D02*
X27630D01*
X27297D01*
Y21899D01*
X26963D01*
X28963Y19900D02*
X29629D01*
X29963Y20233D01*
Y20900D01*
X29629Y21233D01*
X28963D01*
X28630Y20900D01*
Y20233D01*
X28963Y19900D01*
X31962Y21233D02*
X30962D01*
X30629Y20900D01*
Y20233D01*
X30962Y19900D01*
X31962D01*
X32628D02*
Y21899D01*
Y20567D02*
X33628Y21233D01*
X32628Y20567D02*
X33628Y19900D01*
X36627D02*
Y21899D01*
X37293Y21233D01*
X37960Y21899D01*
Y19900D01*
X38626D02*
X39293D01*
X38960D01*
Y21233D01*
X38626D01*
X41625D02*
X40626D01*
X40293Y20900D01*
Y20233D01*
X40626Y19900D01*
X41625D01*
X42292Y21233D02*
Y19900D01*
Y20567D01*
X42625Y20900D01*
X42958Y21233D01*
X43292D01*
X44625Y19900D02*
X45291D01*
X45624Y20233D01*
Y20900D01*
X45291Y21233D01*
X44625D01*
X44291Y20900D01*
Y20233D01*
X44625Y19900D01*
X44300Y81399D02*
X45633D01*
X44966D01*
Y79400D01*
X46299D02*
Y81399D01*
X47299D01*
X47632Y81066D01*
Y80400D01*
X47299Y80066D01*
X46299D01*
X46966D02*
X47632Y79400D01*
M02*
