G04 Layer_Physical_Order=1*
G04 Layer_Color=255*
%FSLAX25Y25*%
%MOIN*%
G70*
G01*
G75*
%ADD10R,0.03937X0.01969*%
%ADD11R,0.09449X0.02992*%
%ADD12R,0.07874X0.09843*%
%ADD13O,0.01575X0.00984*%
%ADD14O,0.00984X0.01575*%
G04:AMPARAMS|DCode=15|XSize=23.62mil|YSize=31.5mil|CornerRadius=0.59mil|HoleSize=0mil|Usage=FLASHONLY|Rotation=180.000|XOffset=0mil|YOffset=0mil|HoleType=Round|Shape=RoundedRectangle|*
%AMROUNDEDRECTD15*
21,1,0.02362,0.03032,0,0,180.0*
21,1,0.02244,0.03150,0,0,180.0*
1,1,0.00118,-0.01122,0.01516*
1,1,0.00118,0.01122,0.01516*
1,1,0.00118,0.01122,-0.01516*
1,1,0.00118,-0.01122,-0.01516*
%
%ADD15ROUNDEDRECTD15*%
G04:AMPARAMS|DCode=16|XSize=39.37mil|YSize=35.43mil|CornerRadius=0.89mil|HoleSize=0mil|Usage=FLASHONLY|Rotation=0.000|XOffset=0mil|YOffset=0mil|HoleType=Round|Shape=RoundedRectangle|*
%AMROUNDEDRECTD16*
21,1,0.03937,0.03366,0,0,0.0*
21,1,0.03760,0.03543,0,0,0.0*
1,1,0.00177,0.01880,-0.01683*
1,1,0.00177,-0.01880,-0.01683*
1,1,0.00177,-0.01880,0.01683*
1,1,0.00177,0.01880,0.01683*
%
%ADD16ROUNDEDRECTD16*%
G04:AMPARAMS|DCode=17|XSize=23.62mil|YSize=31.5mil|CornerRadius=0.59mil|HoleSize=0mil|Usage=FLASHONLY|Rotation=90.000|XOffset=0mil|YOffset=0mil|HoleType=Round|Shape=RoundedRectangle|*
%AMROUNDEDRECTD17*
21,1,0.02362,0.03032,0,0,90.0*
21,1,0.02244,0.03150,0,0,90.0*
1,1,0.00118,0.01516,0.01122*
1,1,0.00118,0.01516,-0.01122*
1,1,0.00118,-0.01516,-0.01122*
1,1,0.00118,-0.01516,0.01122*
%
%ADD17ROUNDEDRECTD17*%
G04:AMPARAMS|DCode=18|XSize=35.43mil|YSize=27.56mil|CornerRadius=0.69mil|HoleSize=0mil|Usage=FLASHONLY|Rotation=0.000|XOffset=0mil|YOffset=0mil|HoleType=Round|Shape=RoundedRectangle|*
%AMROUNDEDRECTD18*
21,1,0.03543,0.02618,0,0,0.0*
21,1,0.03406,0.02756,0,0,0.0*
1,1,0.00138,0.01703,-0.01309*
1,1,0.00138,-0.01703,-0.01309*
1,1,0.00138,-0.01703,0.01309*
1,1,0.00138,0.01703,0.01309*
%
%ADD18ROUNDEDRECTD18*%
%ADD19R,0.09843X0.09843*%
%ADD20O,0.00787X0.02953*%
%ADD21O,0.02953X0.00787*%
%ADD22R,0.10630X0.05906*%
%ADD23O,0.06693X0.01772*%
%ADD24R,0.03347X0.01575*%
%ADD25R,0.05906X0.09843*%
%ADD26R,0.03543X0.03150*%
%ADD27C,0.00600*%
%ADD28C,0.01000*%
%ADD29C,0.00800*%
%ADD30C,0.07000*%
%ADD31R,0.07000X0.07000*%
%ADD32C,0.01800*%
%ADD33C,0.01969*%
G36*
X6156Y87762D02*
X6298Y87511D01*
X6372Y87141D01*
X6700Y86649D01*
X7192Y86321D01*
X7772Y86206D01*
X12693D01*
X13273Y86321D01*
X13764Y86649D01*
X13867Y86803D01*
X14599D01*
X15382Y86020D01*
Y80100D01*
X15452Y79749D01*
X15651Y79451D01*
X19590Y75512D01*
X19399Y75050D01*
X17878D01*
X17621Y74999D01*
X17403Y74853D01*
X17257Y74635D01*
X17214Y74418D01*
X12053D01*
Y79021D01*
X4947D01*
Y67979D01*
X12053D01*
Y72582D01*
X17206D01*
Y71346D01*
X17257Y71089D01*
X17403Y70871D01*
X17621Y70726D01*
X17878Y70675D01*
X19890D01*
X25413Y65151D01*
X25711Y64952D01*
X26062Y64882D01*
X39776D01*
X42082Y62576D01*
Y59391D01*
X41919Y59281D01*
X41695Y58947D01*
X41259Y58819D01*
X41230Y58816D01*
X41086Y58829D01*
X40851Y58986D01*
X40694Y59017D01*
Y59854D01*
X40643Y60111D01*
X40497Y60329D01*
X40279Y60474D01*
X40022Y60526D01*
X37925D01*
X37913Y60585D01*
X37581Y61081D01*
X37085Y61413D01*
X36500Y61529D01*
X35915Y61413D01*
X35419Y61081D01*
X35309Y60918D01*
X32000D01*
X31649Y60848D01*
X31351Y60649D01*
X26120Y55418D01*
X12053D01*
Y60021D01*
X4947D01*
Y52245D01*
X2351Y49649D01*
X2152Y49351D01*
X2082Y49000D01*
Y26500D01*
X2152Y26149D01*
X2351Y25851D01*
X4947Y23255D01*
Y15479D01*
X12053D01*
Y19661D01*
X40420D01*
X42710Y17371D01*
X43008Y17172D01*
X43359Y17102D01*
X50618D01*
X50728Y16937D01*
X51090Y16696D01*
X51424Y16629D01*
X51573Y16356D01*
X51625Y16123D01*
X50720Y15218D01*
X49500D01*
X49149Y15148D01*
X48851Y14949D01*
X47351Y13449D01*
X47152Y13151D01*
X47082Y12800D01*
Y11015D01*
X46930Y10994D01*
X45932Y10581D01*
X45076Y9924D01*
X44419Y9068D01*
X44006Y8070D01*
X43865Y7000D01*
X44006Y5930D01*
X44419Y4932D01*
X45076Y4076D01*
X45932Y3419D01*
X46930Y3005D01*
X48000Y2865D01*
X49070Y3005D01*
X50068Y3419D01*
X50924Y4076D01*
X51581Y4932D01*
X51995Y5930D01*
X52135Y7000D01*
X51995Y8070D01*
X51581Y9068D01*
X50924Y9924D01*
X50068Y10581D01*
X49070Y10994D01*
X48918Y11015D01*
Y12420D01*
X49880Y13382D01*
X51100D01*
X51451Y13452D01*
X51749Y13651D01*
X52683Y14585D01*
X52872Y14552D01*
X53193Y14388D01*
X53287Y13915D01*
X53619Y13419D01*
X54115Y13087D01*
X54700Y12971D01*
X55285Y13087D01*
X55781Y13419D01*
X56113Y13915D01*
X56229Y14500D01*
X56113Y15085D01*
X55781Y15581D01*
X55819Y16122D01*
X56632Y16935D01*
X57094Y16743D01*
Y11016D01*
X56930Y10994D01*
X55932Y10581D01*
X55076Y9924D01*
X54419Y9068D01*
X54005Y8070D01*
X53865Y7000D01*
X54005Y5930D01*
X54419Y4932D01*
X55076Y4076D01*
X55932Y3419D01*
X56930Y3005D01*
X58000Y2865D01*
X59070Y3005D01*
X60068Y3419D01*
X60924Y4076D01*
X61581Y4932D01*
X61994Y5930D01*
X62135Y7000D01*
X61994Y8070D01*
X61581Y9068D01*
X60924Y9924D01*
X60068Y10581D01*
X59070Y10994D01*
X58929Y11013D01*
Y17232D01*
X60949Y19251D01*
X61148Y19549D01*
X61486Y19649D01*
X61682Y19674D01*
X62200Y19571D01*
X62785Y19687D01*
X63281Y20019D01*
X63391Y20182D01*
X66000D01*
X66351Y20252D01*
X66649Y20451D01*
X67349Y21151D01*
X67548Y21449D01*
X67618Y21800D01*
Y28446D01*
X67548Y28797D01*
X67349Y29094D01*
X65194Y31249D01*
X64897Y31448D01*
X64546Y31518D01*
X58393D01*
X58307Y31535D01*
X57717D01*
X57290Y31450D01*
X56929Y31209D01*
X56688Y30847D01*
X56603Y30421D01*
X56688Y29995D01*
X56929Y29634D01*
Y29240D01*
X56688Y28879D01*
X56603Y28453D01*
X56688Y28027D01*
X56929Y27665D01*
Y27272D01*
X56688Y26910D01*
X56603Y26484D01*
X56688Y26058D01*
X56833Y25840D01*
X56894Y25500D01*
X56833Y25160D01*
X56688Y24942D01*
X56603Y24516D01*
X56688Y24090D01*
X56929Y23728D01*
Y23335D01*
X56688Y22973D01*
X56603Y22547D01*
X56688Y22121D01*
X56929Y21760D01*
Y21366D01*
X56688Y21005D01*
X56603Y20579D01*
X56688Y20153D01*
X56915Y19813D01*
X55098Y17996D01*
X54598Y18203D01*
Y18315D01*
X54513Y18741D01*
X54272Y19102D01*
X53910Y19344D01*
X53484Y19429D01*
X53058Y19344D01*
X52840Y19198D01*
X52500Y19138D01*
X52160Y19198D01*
X51942Y19344D01*
X51516Y19429D01*
X51090Y19344D01*
X50728Y19102D01*
X50618Y18937D01*
X43739D01*
X41718Y20959D01*
Y21809D01*
X41881Y21919D01*
X42213Y22415D01*
X42257Y22638D01*
X42800Y22802D01*
X43751Y21851D01*
X44049Y21652D01*
X44400Y21582D01*
X45449D01*
X45716Y21082D01*
X45664Y21005D01*
X45579Y20579D01*
X45664Y20153D01*
X45906Y19791D01*
X46267Y19550D01*
X46693Y19465D01*
X47284D01*
X47710Y19550D01*
X48071Y19791D01*
X48312Y20153D01*
X48397Y20579D01*
X48312Y21005D01*
X48071Y21366D01*
Y21760D01*
X48312Y22121D01*
X48397Y22547D01*
X48312Y22973D01*
X48071Y23335D01*
X47710Y23576D01*
X47284Y23661D01*
X46693D01*
X46267Y23576D01*
X46030Y23418D01*
X44780D01*
X42328Y25869D01*
X42362Y26133D01*
X42889Y26313D01*
X43367Y25835D01*
X43665Y25637D01*
X44016Y25567D01*
X46101D01*
X46267Y25455D01*
X46693Y25371D01*
X47284D01*
X47710Y25455D01*
X48071Y25697D01*
X48312Y26058D01*
X48397Y26484D01*
X48312Y26910D01*
X48071Y27272D01*
Y27665D01*
X48312Y28027D01*
X48397Y28453D01*
X48312Y28879D01*
X48071Y29240D01*
Y29634D01*
X48312Y29995D01*
X48397Y30421D01*
X48312Y30847D01*
X48071Y31209D01*
X47710Y31450D01*
X47440Y31504D01*
X47299Y31681D01*
X47172Y31894D01*
X47134Y32019D01*
X47229Y32500D01*
X47113Y33085D01*
X46781Y33581D01*
X46285Y33913D01*
X45700Y34029D01*
X45115Y33913D01*
X44618Y34182D01*
Y38020D01*
X46380Y39782D01*
X50700D01*
X51051Y39852D01*
X51349Y40051D01*
X53606Y42308D01*
X53804Y42606D01*
X53874Y42957D01*
Y43719D01*
X54327Y44001D01*
X54374Y44002D01*
X54728Y43932D01*
X54850Y43956D01*
X55270Y43604D01*
X55288Y43567D01*
X55246Y43339D01*
X55115Y43313D01*
X54619Y42981D01*
X54287Y42485D01*
X54171Y41900D01*
X54287Y41315D01*
X54619Y40819D01*
X55115Y40487D01*
X55700Y40371D01*
X56285Y40487D01*
X56353Y40532D01*
X56802Y40231D01*
X56742Y39928D01*
X56859Y39343D01*
X56539Y38922D01*
X56500Y38929D01*
X55915Y38813D01*
X55419Y38481D01*
X55376Y38418D01*
X54550D01*
Y38622D01*
X54499Y38879D01*
X54353Y39097D01*
X54135Y39243D01*
X53878Y39294D01*
X50846D01*
X50589Y39243D01*
X50371Y39097D01*
X50226Y38879D01*
X50174Y38622D01*
Y36378D01*
X50226Y36121D01*
X50371Y35903D01*
X50589Y35757D01*
X50846Y35706D01*
X53878D01*
X54135Y35757D01*
X54353Y35903D01*
X54499Y36121D01*
X54550Y36378D01*
Y36582D01*
X55242D01*
X55419Y36319D01*
X55915Y35987D01*
X56500Y35871D01*
X57085Y35987D01*
X57581Y36319D01*
X57758Y36582D01*
X70003D01*
X73328Y33257D01*
Y30009D01*
X78072D01*
Y34358D01*
X74823D01*
X71318Y37863D01*
Y47125D01*
X71378Y47175D01*
X73622D01*
X73879Y47226D01*
X74097Y47371D01*
X74243Y47589D01*
X74294Y47846D01*
Y49669D01*
X74388Y49742D01*
X74903Y49871D01*
X75121Y49726D01*
X75378Y49674D01*
X77622D01*
X77879Y49726D01*
X78097Y49871D01*
X78243Y50089D01*
X78294Y50346D01*
Y50945D01*
X79606D01*
Y50346D01*
X79657Y50089D01*
X79803Y49871D01*
X80021Y49726D01*
X80278Y49674D01*
X82522D01*
X82779Y49726D01*
X82997Y49871D01*
X83143Y50089D01*
X83194Y50346D01*
Y53267D01*
X83278Y53344D01*
X83739Y53142D01*
X83778Y53096D01*
Y48700D01*
X83864Y48271D01*
X84107Y47907D01*
X84471Y47664D01*
X84900Y47578D01*
X95335D01*
Y1122D01*
X1122D01*
Y87916D01*
X5786D01*
X6156Y87762D01*
D02*
G37*
G36*
X95335Y73322D02*
X84900D01*
X84471Y73236D01*
X84107Y72993D01*
X83864Y72629D01*
X83778Y72200D01*
Y67200D01*
X83864Y66771D01*
X84107Y66407D01*
X84471Y66164D01*
X84900Y66078D01*
X95335D01*
Y59928D01*
X90967D01*
Y57153D01*
X91565D01*
X91756Y56692D01*
X91082Y56018D01*
X83340D01*
X82989Y55948D01*
X82691Y55749D01*
X80992Y54050D01*
X80278D01*
X80021Y53999D01*
X79803Y53853D01*
X79657Y53635D01*
X79606Y53378D01*
Y52780D01*
X78294D01*
Y53378D01*
X78243Y53635D01*
X78097Y53853D01*
X77879Y53999D01*
X77622Y54050D01*
X75378D01*
X75121Y53999D01*
X74903Y53853D01*
X74757Y53635D01*
X74706Y53378D01*
Y53146D01*
X65970D01*
X65943Y53164D01*
X65555Y53241D01*
X63390D01*
X63002Y53164D01*
X62673Y52945D01*
X62454Y52616D01*
X62377Y52228D01*
X62454Y51841D01*
X62673Y51512D01*
Y51173D01*
X62454Y50844D01*
X62377Y50457D01*
X62454Y50069D01*
X62673Y49740D01*
Y49401D01*
X62454Y49073D01*
X62377Y48685D01*
X62419Y48474D01*
X62395Y48428D01*
X62072Y48105D01*
X62026Y48081D01*
X61815Y48123D01*
X61427Y48046D01*
X61099Y47827D01*
X60760D01*
X60431Y48046D01*
X60043Y48123D01*
X59656Y48046D01*
X59327Y47827D01*
X58988D01*
X58659Y48046D01*
X58272Y48123D01*
X57884Y48046D01*
X57555Y47827D01*
X57216D01*
X56888Y48046D01*
X56500Y48123D01*
X56112Y48046D01*
X55784Y47827D01*
X55445D01*
X55116Y48046D01*
X54728Y48123D01*
X54341Y48046D01*
X54012Y47827D01*
X53673D01*
X53344Y48046D01*
X52957Y48123D01*
X52569Y48046D01*
X52240Y47827D01*
X51901D01*
X51573Y48046D01*
X51185Y48123D01*
X50974Y48081D01*
X50928Y48105D01*
X50605Y48428D01*
X50582Y48474D01*
X50623Y48685D01*
X50546Y49073D01*
X50327Y49401D01*
Y49740D01*
X50546Y50069D01*
X50623Y50457D01*
X50546Y50844D01*
X50327Y51173D01*
Y51512D01*
X50546Y51841D01*
X50623Y52228D01*
X50546Y52616D01*
X50327Y52945D01*
X49998Y53164D01*
X49610Y53241D01*
X47445D01*
X47057Y53164D01*
X47030Y53146D01*
X42369D01*
Y53815D01*
X37231D01*
Y53146D01*
X36181D01*
X35830Y53076D01*
X35532Y52877D01*
X34193Y51538D01*
X31797D01*
X31536Y51486D01*
X31315Y51338D01*
X31167Y51117D01*
X31115Y50856D01*
Y50418D01*
X29415D01*
Y53053D01*
X17585D01*
Y45947D01*
X29415D01*
Y48582D01*
X31115D01*
Y48238D01*
X31167Y47977D01*
X31315Y47756D01*
X31536Y47608D01*
X31797Y47556D01*
X35203D01*
X35464Y47608D01*
X35685Y47756D01*
X35833Y47977D01*
X35885Y48238D01*
Y50634D01*
X36561Y51311D01*
X37231D01*
Y50647D01*
X40743D01*
X40934Y50185D01*
X40234Y49484D01*
X37231D01*
Y46482D01*
X34193Y43444D01*
X31797D01*
X31536Y43392D01*
X31315Y43244D01*
X31167Y43023D01*
X31115Y42762D01*
Y42150D01*
X29415D01*
Y44785D01*
X17585D01*
Y37679D01*
X29415D01*
Y40315D01*
X31115D01*
Y40144D01*
X31167Y39883D01*
X31315Y39661D01*
X31536Y39514D01*
X31797Y39462D01*
X35203D01*
X35464Y39514D01*
X35685Y39661D01*
X35833Y39883D01*
X35885Y40144D01*
Y42540D01*
X39661Y46316D01*
X42369D01*
Y49024D01*
X42884Y49539D01*
X46219D01*
X46501Y49086D01*
X46502Y49039D01*
X46432Y48685D01*
X46509Y48297D01*
X46729Y47969D01*
X47057Y47749D01*
X47445Y47672D01*
X47610D01*
Y44908D01*
X46720Y44018D01*
X45006D01*
X44655Y43948D01*
X44357Y43749D01*
X40651Y40043D01*
X40452Y39745D01*
X40382Y39394D01*
Y25600D01*
X40452Y25249D01*
X40617Y25003D01*
X40582Y24792D01*
X40438Y24457D01*
X40215Y24413D01*
X39719Y24081D01*
X39387Y23585D01*
X39271Y23000D01*
X39387Y22415D01*
X39667Y21996D01*
X39578Y21698D01*
X39450Y21496D01*
X12053D01*
Y26521D01*
X4947D01*
Y26504D01*
X4485Y26312D01*
X3918Y26880D01*
Y48620D01*
X4485Y49188D01*
X4947Y48996D01*
Y48979D01*
X12053D01*
Y53582D01*
X26500D01*
X26851Y53652D01*
X27149Y53851D01*
X32380Y59082D01*
X35309D01*
X35419Y58919D01*
X35915Y58587D01*
X36500Y58471D01*
X36693Y58509D01*
X37106Y58096D01*
Y56822D01*
X37157Y56565D01*
X37303Y56347D01*
X37521Y56201D01*
X37778Y56150D01*
X40022D01*
X40279Y56201D01*
X40497Y56347D01*
X41056Y56284D01*
X42217Y55123D01*
X42515Y54924D01*
X42866Y54854D01*
X47030D01*
X47057Y54836D01*
X47445Y54759D01*
X49610D01*
X49998Y54836D01*
X50327Y55055D01*
X50546Y55384D01*
X50623Y55772D01*
X50546Y56159D01*
X50327Y56488D01*
Y56827D01*
X50546Y57156D01*
X50623Y57543D01*
X50546Y57931D01*
X50327Y58260D01*
Y58599D01*
X50546Y58927D01*
X50623Y59315D01*
X50582Y59526D01*
X50605Y59572D01*
X50928Y59895D01*
X50974Y59918D01*
X51185Y59877D01*
X51573Y59954D01*
X51720Y60052D01*
X52071Y60134D01*
X52422Y60052D01*
X52569Y59954D01*
X52957Y59877D01*
X53344Y59954D01*
X53673Y60173D01*
X54012D01*
X54341Y59954D01*
X54728Y59877D01*
X55116Y59954D01*
X55445Y60173D01*
X55784D01*
X56112Y59954D01*
X56500Y59877D01*
X56888Y59954D01*
X57216Y60173D01*
X57555D01*
X57884Y59954D01*
X58272Y59877D01*
X58659Y59954D01*
X58988Y60173D01*
X59327D01*
X59656Y59954D01*
X60043Y59877D01*
X60431Y59954D01*
X60760Y60173D01*
X61099D01*
X61427Y59954D01*
X61815Y59877D01*
X62026Y59918D01*
X62072Y59895D01*
X62395Y59572D01*
X62419Y59526D01*
X62377Y59315D01*
X62454Y58927D01*
X62673Y58599D01*
Y58260D01*
X62454Y57931D01*
X62377Y57543D01*
X62454Y57156D01*
X62673Y56827D01*
Y56488D01*
X62454Y56159D01*
X62377Y55772D01*
X62454Y55384D01*
X62673Y55055D01*
X63002Y54836D01*
X63390Y54759D01*
X65555D01*
X65943Y54836D01*
X66272Y55055D01*
X66491Y55384D01*
X66568Y55772D01*
X66498Y56126D01*
X66500Y56173D01*
X66781Y56626D01*
X85043D01*
X85395Y56695D01*
X85692Y56894D01*
X85951Y57153D01*
X88033D01*
Y59928D01*
X83487D01*
Y58461D01*
X66781D01*
X66500Y58914D01*
X66498Y58961D01*
X66568Y59315D01*
X66491Y59703D01*
X66272Y60031D01*
X65943Y60251D01*
X65555Y60328D01*
X63390D01*
X63179Y60286D01*
X63133Y60310D01*
X62810Y60632D01*
X62786Y60679D01*
X62828Y60890D01*
Y63055D01*
X63014Y63214D01*
X63274Y63375D01*
X63800Y63271D01*
X64385Y63387D01*
X64881Y63719D01*
X65122Y64079D01*
X65205Y64103D01*
X65596D01*
X65678Y64079D01*
X65919Y63719D01*
X66415Y63387D01*
X67000Y63271D01*
X67585Y63387D01*
X68081Y63719D01*
X68413Y64215D01*
X68426Y64279D01*
X68981Y64509D01*
X69015Y64487D01*
X69600Y64371D01*
X70185Y64487D01*
X70681Y64819D01*
X70791Y64982D01*
X73200D01*
X73551Y65052D01*
X73849Y65251D01*
X84949Y76351D01*
X85148Y76649D01*
X85218Y77000D01*
Y83220D01*
X86402Y84404D01*
X95335D01*
Y73322D01*
D02*
G37*
G36*
X83871Y94000D02*
X83987Y93415D01*
X84319Y92919D01*
X84815Y92587D01*
X85156Y92519D01*
Y89404D01*
X95335D01*
Y88596D01*
X85156D01*
Y85754D01*
X83651Y84249D01*
X83452Y83951D01*
X83382Y83600D01*
Y77380D01*
X72820Y66818D01*
X70791D01*
X70681Y66981D01*
X70185Y67313D01*
X69600Y67429D01*
X69015Y67313D01*
X68519Y66981D01*
X68418Y66830D01*
X67918Y66982D01*
Y70709D01*
X68081Y70819D01*
X68413Y71315D01*
X68529Y71900D01*
X68413Y72485D01*
X68081Y72981D01*
X67585Y73313D01*
X67000Y73429D01*
X66746Y73379D01*
X66500Y73840D01*
X67542Y74882D01*
X68100Y74771D01*
X68685Y74887D01*
X69181Y75219D01*
X69513Y75715D01*
X69629Y76300D01*
X69513Y76885D01*
X69181Y77381D01*
X68685Y77713D01*
X68100Y77829D01*
X67515Y77713D01*
X67019Y77381D01*
X66687Y76885D01*
X66622Y76557D01*
X64794Y74730D01*
X64294Y74937D01*
Y77378D01*
X64243Y77635D01*
X64097Y77853D01*
X64053Y77882D01*
X64205Y78382D01*
X72820D01*
X73171Y78452D01*
X73469Y78651D01*
X74221Y79404D01*
X80844D01*
Y83596D01*
X70195D01*
Y80218D01*
X66290D01*
X66138Y80718D01*
X66398Y80891D01*
X66579Y81161D01*
X66821Y81324D01*
X69744Y84246D01*
X70195Y84404D01*
Y84404D01*
X70195Y84404D01*
X80844D01*
Y88596D01*
X70947D01*
X70756Y89058D01*
X71102Y89404D01*
X80844D01*
Y93596D01*
X70195D01*
Y91093D01*
X64020Y84918D01*
X63666D01*
X63200Y85000D01*
Y93200D01*
X55000D01*
Y85000D01*
X56049D01*
X56240Y84538D01*
X52351Y80649D01*
X52152Y80351D01*
X52082Y80000D01*
Y68335D01*
X51582Y68073D01*
X51418Y68188D01*
Y85710D01*
X52024Y86176D01*
X52681Y87032D01*
X53095Y88030D01*
X53235Y89100D01*
X53095Y90170D01*
X52681Y91168D01*
X52024Y92024D01*
X51168Y92681D01*
X50170Y93094D01*
X49100Y93235D01*
X48030Y93094D01*
X47032Y92681D01*
X46176Y92024D01*
X45519Y91168D01*
X45443Y90985D01*
X44923Y91036D01*
X44913Y91085D01*
X44581Y91581D01*
X44418Y91691D01*
Y92620D01*
X45937Y94139D01*
X83389D01*
X83871Y94000D01*
D02*
G37*
G36*
X40957Y94835D02*
X40882Y94457D01*
X40920Y94263D01*
X40413Y93756D01*
X30402D01*
X30300Y93910D01*
X29808Y94238D01*
X29228Y94353D01*
X24307D01*
X23727Y94238D01*
X23236Y93910D01*
X22907Y93418D01*
X22792Y92839D01*
X22907Y92259D01*
X23236Y91767D01*
Y91655D01*
X22799Y91197D01*
X22379D01*
X22028Y91127D01*
X21731Y90928D01*
X19751Y88949D01*
X19552Y88651D01*
X19482Y88300D01*
Y81703D01*
X19552Y81352D01*
X19751Y81054D01*
X30254Y70551D01*
X30552Y70352D01*
X30903Y70282D01*
X39723D01*
X44578Y65427D01*
X44551Y65100D01*
X44039Y64912D01*
X40802Y68149D01*
X40505Y68348D01*
X40153Y68418D01*
X29280D01*
X17218Y80480D01*
Y86400D01*
X17148Y86751D01*
X16949Y87049D01*
X15628Y88369D01*
X15331Y88568D01*
X14979Y88638D01*
X14212D01*
X13815Y89117D01*
X13849Y89336D01*
X14093Y89700D01*
X14208Y90280D01*
X14093Y90859D01*
X13764Y91351D01*
Y91767D01*
X14093Y92259D01*
X14208Y92839D01*
X14093Y93418D01*
X13764Y93910D01*
X13273Y94238D01*
X12693Y94353D01*
X7772D01*
X7192Y94238D01*
X6776Y93960D01*
X6069D01*
Y95335D01*
X40639D01*
X40957Y94835D01*
D02*
G37*
G36*
X33450Y83878D02*
X33501Y83621D01*
X33647Y83403D01*
X33865Y83257D01*
X34122Y83206D01*
X36696D01*
X47482Y72420D01*
Y69191D01*
X47319Y69081D01*
X46987Y68585D01*
X46893Y68112D01*
X46572Y67948D01*
X46383Y67915D01*
X41249Y73049D01*
X40951Y73248D01*
X40600Y73318D01*
X31780D01*
X22918Y82180D01*
Y83735D01*
X23418Y83969D01*
X23727Y83762D01*
X24307Y83647D01*
X29228D01*
X29808Y83762D01*
X30300Y84090D01*
X30402Y84244D01*
X33450D01*
Y83878D01*
D02*
G37*
%LPC*%
G36*
X38000Y11135D02*
X36930Y10994D01*
X35932Y10581D01*
X35076Y9924D01*
X34419Y9068D01*
X34005Y8070D01*
X33865Y7000D01*
X34005Y5930D01*
X34419Y4932D01*
X35076Y4076D01*
X35932Y3419D01*
X36930Y3005D01*
X38000Y2865D01*
X39070Y3005D01*
X40068Y3419D01*
X40924Y4076D01*
X41581Y4932D01*
X41995Y5930D01*
X42135Y7000D01*
X41995Y8070D01*
X41581Y9068D01*
X40924Y9924D01*
X40068Y10581D01*
X39070Y10994D01*
X38000Y11135D01*
D02*
G37*
G36*
X68000D02*
X66930Y10994D01*
X65932Y10581D01*
X65076Y9924D01*
X64419Y9068D01*
X64006Y8070D01*
X63865Y7000D01*
X64006Y5930D01*
X64419Y4932D01*
X65076Y4076D01*
X65932Y3419D01*
X66930Y3005D01*
X68000Y2865D01*
X69070Y3005D01*
X70068Y3419D01*
X70924Y4076D01*
X71581Y4932D01*
X71995Y5930D01*
X72135Y7000D01*
X71995Y8070D01*
X71581Y9068D01*
X70924Y9924D01*
X70068Y10581D01*
X69070Y10994D01*
X68000Y11135D01*
D02*
G37*
G36*
X28000D02*
X26930Y10994D01*
X25932Y10581D01*
X25076Y9924D01*
X24419Y9068D01*
X24005Y8070D01*
X23865Y7000D01*
X24005Y5930D01*
X24419Y4932D01*
X25076Y4076D01*
X25932Y3419D01*
X26930Y3005D01*
X28000Y2865D01*
X29070Y3005D01*
X30068Y3419D01*
X30924Y4076D01*
X31581Y4932D01*
X31995Y5930D01*
X32135Y7000D01*
X31995Y8070D01*
X31581Y9068D01*
X30924Y9924D01*
X30068Y10581D01*
X29070Y10994D01*
X28000Y11135D01*
D02*
G37*
G36*
X8000D02*
X6930Y10994D01*
X5932Y10581D01*
X5076Y9924D01*
X4419Y9068D01*
X4005Y8070D01*
X3865Y7000D01*
X4005Y5930D01*
X4419Y4932D01*
X5076Y4076D01*
X5932Y3419D01*
X6930Y3005D01*
X8000Y2865D01*
X9070Y3005D01*
X10068Y3419D01*
X10924Y4076D01*
X11581Y4932D01*
X11994Y5930D01*
X12135Y7000D01*
X11994Y8070D01*
X11581Y9068D01*
X10924Y9924D01*
X10068Y10581D01*
X9070Y10994D01*
X8000Y11135D01*
D02*
G37*
G36*
X18000D02*
X16930Y10994D01*
X15932Y10581D01*
X15076Y9924D01*
X14419Y9068D01*
X14006Y8070D01*
X13865Y7000D01*
X14006Y5930D01*
X14419Y4932D01*
X15076Y4076D01*
X15932Y3419D01*
X16930Y3005D01*
X18000Y2865D01*
X19070Y3005D01*
X20068Y3419D01*
X20924Y4076D01*
X21581Y4932D01*
X21994Y5930D01*
X22135Y7000D01*
X21994Y8070D01*
X21581Y9068D01*
X20924Y9924D01*
X20068Y10581D01*
X19070Y10994D01*
X18000Y11135D01*
D02*
G37*
G36*
X78000D02*
X76930Y10994D01*
X75932Y10581D01*
X75076Y9924D01*
X74419Y9068D01*
X74006Y8070D01*
X73865Y7000D01*
X74006Y5930D01*
X74419Y4932D01*
X75076Y4076D01*
X75932Y3419D01*
X76930Y3005D01*
X78000Y2865D01*
X79070Y3005D01*
X80068Y3419D01*
X80924Y4076D01*
X81581Y4932D01*
X81994Y5930D01*
X82135Y7000D01*
X81994Y8070D01*
X81581Y9068D01*
X80924Y9924D01*
X80068Y10581D01*
X79070Y10994D01*
X78000Y11135D01*
D02*
G37*
G36*
X91553Y45521D02*
X84447D01*
Y44739D01*
X84300Y44618D01*
X82791D01*
X82681Y44781D01*
X82185Y45113D01*
X81600Y45229D01*
X81015Y45113D01*
X80519Y44781D01*
X80187Y44285D01*
X80071Y43700D01*
X80187Y43115D01*
X80519Y42619D01*
X81015Y42287D01*
X81600Y42171D01*
X82185Y42287D01*
X82681Y42619D01*
X82791Y42782D01*
X83920D01*
X84447Y42255D01*
Y34479D01*
X91553D01*
Y45521D01*
D02*
G37*
G36*
X88033Y65047D02*
X83487D01*
Y62272D01*
X88033D01*
Y65047D01*
D02*
G37*
G36*
X12053Y45521D02*
X4947D01*
Y34479D01*
X7582D01*
Y33500D01*
X7652Y33149D01*
X7851Y32851D01*
X12989Y27713D01*
X13287Y27514D01*
X13638Y27445D01*
X17206D01*
Y26847D01*
X17257Y26589D01*
X17403Y26371D01*
X17621Y26226D01*
X17878Y26175D01*
X20122D01*
X20379Y26226D01*
X20597Y26371D01*
X20743Y26589D01*
X20794Y26847D01*
Y29878D01*
X20743Y30135D01*
X20597Y30353D01*
X20379Y30499D01*
X20122Y30550D01*
X17878D01*
X17621Y30499D01*
X17403Y30353D01*
X17257Y30135D01*
X17206Y29878D01*
Y29280D01*
X14018D01*
X9418Y33880D01*
Y34479D01*
X12053D01*
Y38090D01*
X12553Y38500D01*
X12700Y38471D01*
X13285Y38587D01*
X13781Y38919D01*
X14113Y39415D01*
X14229Y40000D01*
X14113Y40585D01*
X13781Y41081D01*
X13285Y41413D01*
X12700Y41529D01*
X12553Y41500D01*
X12053Y41910D01*
Y45521D01*
D02*
G37*
G36*
X78072Y25303D02*
X73328D01*
Y20954D01*
X74782D01*
Y19300D01*
X74852Y18949D01*
X75051Y18651D01*
X84512Y9190D01*
X84419Y9068D01*
X84005Y8070D01*
X83865Y7000D01*
X84005Y5930D01*
X84419Y4932D01*
X85076Y4076D01*
X85932Y3419D01*
X86930Y3005D01*
X88000Y2865D01*
X89070Y3005D01*
X90068Y3419D01*
X90924Y4076D01*
X91581Y4932D01*
X91995Y5930D01*
X92135Y7000D01*
X91995Y8070D01*
X91581Y9068D01*
X90924Y9924D01*
X90068Y10581D01*
X89070Y10994D01*
X88000Y11135D01*
X86930Y10994D01*
X85932Y10581D01*
X85810Y10488D01*
X76618Y19680D01*
Y20954D01*
X78072D01*
Y25303D01*
D02*
G37*
G36*
X51516Y34389D02*
X51090Y34304D01*
X50728Y34063D01*
X50487Y33702D01*
X50402Y33276D01*
Y32685D01*
X50487Y32259D01*
X50728Y31898D01*
X51090Y31656D01*
X51516Y31571D01*
X51942Y31656D01*
X52303Y31898D01*
X52544Y32259D01*
X52629Y32685D01*
Y33276D01*
X52544Y33702D01*
X52303Y34063D01*
X51942Y34304D01*
X51516Y34389D01*
D02*
G37*
%LPD*%
D10*
X39800Y52231D02*
D03*
Y47900D02*
D03*
X3500Y93831D02*
D03*
Y89500D02*
D03*
D11*
X90480Y91500D02*
D03*
Y86500D02*
D03*
Y81500D02*
D03*
X75520Y81500D02*
D03*
Y86500D02*
D03*
Y91500D02*
D03*
D12*
X52500Y25500D02*
D03*
D13*
X46988Y20579D02*
D03*
Y22547D02*
D03*
Y24516D02*
D03*
Y26484D02*
D03*
Y28453D02*
D03*
Y30421D02*
D03*
X58012D02*
D03*
Y28453D02*
D03*
Y26484D02*
D03*
Y24516D02*
D03*
Y22547D02*
D03*
Y20579D02*
D03*
D14*
X51516Y32980D02*
D03*
X53484D02*
D03*
Y18020D02*
D03*
X51516D02*
D03*
D15*
X19000Y23638D02*
D03*
Y28362D02*
D03*
X72500Y44638D02*
D03*
Y49362D02*
D03*
X76500Y47138D02*
D03*
Y51862D02*
D03*
X81400Y47138D02*
D03*
Y51862D02*
D03*
X38900Y63062D02*
D03*
Y58338D02*
D03*
X62500Y75862D02*
D03*
Y71138D02*
D03*
X19000Y68138D02*
D03*
Y72862D02*
D03*
D16*
X56500Y77846D02*
D03*
Y71153D02*
D03*
D17*
X47638Y37500D02*
D03*
X52362D02*
D03*
X35638Y85000D02*
D03*
X40362D02*
D03*
X36138Y90500D02*
D03*
X40862D02*
D03*
D18*
X33500Y49547D02*
D03*
Y55453D02*
D03*
X33500Y41453D02*
D03*
Y35547D02*
D03*
D19*
X56500Y54000D02*
D03*
D20*
X51185Y61972D02*
D03*
X52957D02*
D03*
X54728D02*
D03*
X56500D02*
D03*
X58272D02*
D03*
X60043D02*
D03*
X61815D02*
D03*
Y46028D02*
D03*
X60043D02*
D03*
X58272D02*
D03*
X56500D02*
D03*
X54728D02*
D03*
X52957D02*
D03*
X51185D02*
D03*
D21*
X64472Y59315D02*
D03*
Y57543D02*
D03*
Y55772D02*
D03*
Y54000D02*
D03*
Y52228D02*
D03*
Y50457D02*
D03*
Y48685D02*
D03*
X48528D02*
D03*
Y50457D02*
D03*
Y52228D02*
D03*
Y54000D02*
D03*
Y55772D02*
D03*
Y57543D02*
D03*
Y59315D02*
D03*
D22*
X23500Y41232D02*
D03*
Y49500D02*
D03*
D23*
X26768Y85161D02*
D03*
Y87721D02*
D03*
Y90280D02*
D03*
Y92839D02*
D03*
X10232Y85161D02*
D03*
Y87721D02*
D03*
Y90280D02*
D03*
Y92839D02*
D03*
D24*
X93240Y63659D02*
D03*
Y58541D02*
D03*
X85760D02*
D03*
Y61100D02*
D03*
Y63659D02*
D03*
D25*
X8500Y54500D02*
D03*
Y73500D02*
D03*
Y21000D02*
D03*
Y40000D02*
D03*
X88000Y21000D02*
D03*
Y40000D02*
D03*
D26*
X75700Y23128D02*
D03*
Y32183D02*
D03*
D27*
X30903Y71200D02*
X40103D01*
X20400Y81703D02*
Y88300D01*
Y81703D02*
X30903Y71200D01*
X31400Y72400D02*
X40600D01*
X22000Y81800D02*
X31400Y72400D01*
X22000Y81800D02*
Y86300D01*
X45600Y64854D02*
Y65703D01*
X40103Y71200D02*
X45600Y65703D01*
X40600Y72400D02*
X47400Y65600D01*
X40153Y67500D02*
X44500Y63153D01*
X28900Y67500D02*
X40153D01*
X16300Y80100D02*
X28900Y67500D01*
X84300Y77000D02*
Y83600D01*
X73200Y65900D02*
X84300Y77000D01*
X69600Y65900D02*
X73200D01*
X87200Y86500D02*
X90480D01*
X84300Y83600D02*
X87200Y86500D01*
X67662Y76300D02*
X68100D01*
X14979Y87721D02*
X16300Y86400D01*
Y80100D02*
Y86400D01*
X46085Y59315D02*
X48528D01*
X44500Y60900D02*
X46085Y59315D01*
X44500Y60900D02*
Y63153D01*
X46563Y61972D02*
Y63892D01*
X45600Y64854D02*
X46563Y63892D01*
X40156Y65800D02*
X43028Y62928D01*
X26062Y65800D02*
X40156D01*
X43000Y62900D02*
X43028Y62928D01*
X43000Y58200D02*
Y62900D01*
X19000Y72862D02*
X26062Y65800D01*
X10232Y87721D02*
X14979D01*
X48400Y68000D02*
Y72800D01*
X36039Y85161D02*
X48400Y72800D01*
X26768Y85161D02*
X36039D01*
X20400Y88300D02*
X22379Y90280D01*
X26768D01*
X62500Y71138D02*
X67662Y76300D01*
X83000Y21400D02*
X83400Y21000D01*
X88000D01*
X54700Y14500D02*
Y16300D01*
X58012Y19612D01*
Y20579D01*
Y7012D02*
Y17612D01*
X58000Y7000D02*
X58012Y7012D01*
Y17612D02*
X60300Y19900D01*
Y21800D01*
X58012Y22547D02*
X59553D01*
X60300Y21800D01*
X66000Y21100D02*
X66700Y21800D01*
X62200Y21100D02*
X66000D01*
X66700Y21800D02*
Y28446D01*
X61600Y21100D02*
X62200D01*
X61843Y24100D02*
Y24516D01*
X58012D02*
X61843D01*
Y24100D02*
X62100D01*
X61784Y26484D02*
X62000Y26700D01*
X58012Y26484D02*
X61784D01*
X62000Y26287D02*
Y26700D01*
X58159Y28600D02*
X64000D01*
X58191Y30600D02*
X64546D01*
X66700Y28446D01*
X48000Y12800D02*
X49500Y14300D01*
X51100D01*
X53484Y16684D01*
Y18020D01*
X43359D02*
X51516D01*
X40800Y20579D02*
X43359Y18020D01*
X45700Y31709D02*
Y32500D01*
Y31709D02*
X46988Y30421D01*
X44947Y28453D02*
X46988D01*
X43700Y29700D02*
X44947Y28453D01*
X44016Y26484D02*
X46988D01*
X42500Y28000D02*
X44016Y26484D01*
X42500Y28000D02*
Y38897D01*
X46988Y24516D02*
X51516D01*
X44400Y22500D02*
X46988D01*
X41300Y25600D02*
X44400Y22500D01*
X41300Y25600D02*
Y39394D01*
X53484Y26484D02*
Y32980D01*
X52500Y25500D02*
Y27242D01*
X51516Y26484D02*
X52500Y25500D01*
X90580Y81400D02*
X90800D01*
X90480Y81500D02*
X90580Y81400D01*
X81400Y53160D02*
X83340Y55100D01*
X91462D01*
X93240Y56878D01*
X85043Y57543D02*
X85800Y58300D01*
X81400Y51862D02*
Y53160D01*
X93240Y56878D02*
Y57841D01*
X64472Y57543D02*
X85043D01*
X64472Y52228D02*
X76500D01*
Y51862D02*
X81400D01*
X47638Y35338D02*
Y37500D01*
X62100Y44300D02*
X65600D01*
X61815Y44585D02*
X62100Y44300D01*
X61815Y44585D02*
Y46028D01*
X23900Y74800D02*
X24000Y74700D01*
X24500D01*
X61200Y41600D02*
X67700D01*
X60043Y42757D02*
X61200Y41600D01*
X46563Y61972D02*
X51185D01*
X55700Y41900D02*
X56500Y42700D01*
Y46028D01*
X58272Y39928D02*
Y46028D01*
X65200Y70100D02*
X65400Y69900D01*
Y66400D02*
Y69900D01*
X63800Y64800D02*
X65400Y66400D01*
X67000Y64800D02*
Y71900D01*
X67615Y48685D02*
X67700Y48600D01*
X64472Y48685D02*
X67615D01*
X70292Y37592D02*
X75700Y32183D01*
X70400Y48137D02*
X71626Y49362D01*
X70400Y37500D02*
Y48137D01*
X52362Y37500D02*
X70400D01*
X61000Y84000D02*
X64400D01*
X71900Y91500D01*
X75520D01*
X65316Y81972D02*
X66172D01*
X70700Y86500D01*
X75520D01*
X72820Y79300D02*
X75520Y82000D01*
X57954Y79300D02*
X72820D01*
X56500Y77846D02*
X57954Y79300D01*
X60043Y42757D02*
Y46028D01*
X8500Y40000D02*
X12700D01*
X41300Y39394D02*
X45006Y43100D01*
X47100D01*
X48528Y44528D01*
Y48685D01*
X42500Y38897D02*
X45503Y41900D01*
X50000D01*
X51185Y43085D01*
Y46028D01*
X43700Y29700D02*
Y38400D01*
X46000Y40700D01*
X50700D01*
X52957Y42957D01*
Y46028D01*
X64472Y50457D02*
Y52228D01*
X8921Y20579D02*
X40800D01*
Y23000D01*
X8500Y21000D02*
X8921Y20579D01*
X81600Y43700D02*
X84300D01*
X88000Y40000D01*
X58272Y65572D02*
X58300Y65600D01*
X58272Y61972D02*
Y65572D01*
X61500Y64800D02*
Y67800D01*
X60043Y63343D02*
X61500Y64800D01*
X60043Y61972D02*
Y63343D01*
Y61972D02*
X60087Y62016D01*
X22000Y86300D02*
X23420Y87721D01*
X26768D01*
X87800Y91500D02*
X90480D01*
X84243Y95057D02*
X87800Y91500D01*
X45557Y95057D02*
X84243D01*
X26768Y92839D02*
X40793D01*
X42411Y94457D01*
X49100Y89500D02*
X50500Y88100D01*
X23500Y49500D02*
X33453D01*
X33500Y49547D01*
X36181Y52228D01*
X48528D01*
X23500Y41232D02*
X33279D01*
X33500Y41453D01*
X42504Y50457D01*
X48528D01*
X36000Y90500D02*
X36138D01*
X64472Y50457D02*
X72405D01*
X42866Y55772D02*
X48528D01*
X40500Y58138D02*
X42866Y55772D01*
X51516Y36654D02*
X52362Y37500D01*
X8500Y73500D02*
X18362D01*
X8500Y33500D02*
Y40000D01*
Y33500D02*
X13638Y28362D01*
X19000D01*
X3000Y49000D02*
X8500Y54500D01*
X3000Y26500D02*
Y49000D01*
Y26500D02*
X8500Y21000D01*
X75700Y19300D02*
X88000Y7000D01*
X71626Y49362D02*
X72500D01*
X56500Y61972D02*
Y71153D01*
X57791D01*
X62500Y75862D01*
X48000Y7000D02*
Y12800D01*
X36500Y60000D02*
X38362Y58138D01*
X40500D01*
X8500Y54500D02*
X26500D01*
X32000Y60000D01*
X36500D01*
X40862Y90500D02*
X41346D01*
X52957Y61972D02*
Y65043D01*
X50500Y67500D02*
X52957Y65043D01*
X50500Y67500D02*
Y88100D01*
X54728Y61972D02*
Y65772D01*
X53000Y67500D02*
X54728Y65772D01*
X53000Y67500D02*
Y80000D01*
X61500Y88500D01*
X87000Y91500D02*
X90480D01*
X41346Y90500D02*
X43500D01*
Y93000D01*
X45557Y95057D01*
X75700Y19300D02*
Y23128D01*
D28*
X3500Y93831D02*
X4492Y92839D01*
X10232D01*
X3500Y89500D02*
X4279Y90280D01*
X10232D01*
D29*
X31874Y87721D02*
X34654Y90500D01*
X26768Y87721D02*
X31874D01*
X41346Y84500D02*
Y90500D01*
D30*
X8000Y7000D02*
D03*
X18000D02*
D03*
X28000D02*
D03*
X38000D02*
D03*
X48000D02*
D03*
X58000D02*
D03*
X68000D02*
D03*
X78000D02*
D03*
X88000D02*
D03*
X49100Y89100D02*
D03*
D31*
X59100D02*
D03*
D32*
X32400Y74500D02*
D03*
X32600Y81400D02*
D03*
X83000Y88500D02*
D03*
X80400Y77500D02*
D03*
X68100Y76300D02*
D03*
X43000Y58200D02*
D03*
X82500Y66100D02*
D03*
X76500D02*
D03*
X83000Y21400D02*
D03*
X54700Y14500D02*
D03*
X62200Y21100D02*
D03*
X62100Y24100D02*
D03*
X62000Y26700D02*
D03*
X64000Y28600D02*
D03*
X45700Y32500D02*
D03*
X90800Y81400D02*
D03*
X47638Y35338D02*
D03*
X24500Y74700D02*
D03*
X67700Y41600D02*
D03*
X46563Y61972D02*
D03*
X55700Y41900D02*
D03*
X58272Y39928D02*
D03*
X65200Y70100D02*
D03*
X63800Y64800D02*
D03*
X65600Y44300D02*
D03*
X67000Y71900D02*
D03*
Y64800D02*
D03*
X67700Y48600D02*
D03*
X61000Y84000D02*
D03*
X65316Y81972D02*
D03*
X59200Y79300D02*
D03*
X69600Y65900D02*
D03*
X12700Y40000D02*
D03*
X56500Y37400D02*
D03*
X40800Y23000D02*
D03*
X81600Y43700D02*
D03*
X47400Y65600D02*
D03*
X58300D02*
D03*
X61500Y67800D02*
D03*
X48400Y68000D02*
D03*
X85400Y94000D02*
D03*
X42411Y94457D02*
D03*
X36500Y60000D02*
D03*
X43500Y90500D02*
D03*
D33*
X54665Y27665D02*
D03*
Y23335D02*
D03*
X50335Y27665D02*
D03*
Y23335D02*
D03*
X22700Y66168D02*
D03*
Y62231D02*
D03*
X58665Y51835D02*
D03*
X54335D02*
D03*
X58665Y56165D02*
D03*
X54335D02*
D03*
M02*
