G04 Layer_Color=255*
%FSLAX25Y25*%
%MOIN*%
G70*
G01*
G75*
%ADD10R,0.03937X0.01969*%
%ADD11R,0.09449X0.02992*%
%ADD12R,0.07874X0.09843*%
%ADD13O,0.01575X0.00984*%
%ADD14O,0.00984X0.01575*%
G04:AMPARAMS|DCode=15|XSize=23.62mil|YSize=31.5mil|CornerRadius=0.59mil|HoleSize=0mil|Usage=FLASHONLY|Rotation=180.000|XOffset=0mil|YOffset=0mil|HoleType=Round|Shape=RoundedRectangle|*
%AMROUNDEDRECTD15*
21,1,0.02362,0.03032,0,0,180.0*
21,1,0.02244,0.03150,0,0,180.0*
1,1,0.00118,-0.01122,0.01516*
1,1,0.00118,0.01122,0.01516*
1,1,0.00118,0.01122,-0.01516*
1,1,0.00118,-0.01122,-0.01516*
%
%ADD15ROUNDEDRECTD15*%
G04:AMPARAMS|DCode=16|XSize=39.37mil|YSize=35.43mil|CornerRadius=0.89mil|HoleSize=0mil|Usage=FLASHONLY|Rotation=0.000|XOffset=0mil|YOffset=0mil|HoleType=Round|Shape=RoundedRectangle|*
%AMROUNDEDRECTD16*
21,1,0.03937,0.03366,0,0,0.0*
21,1,0.03760,0.03543,0,0,0.0*
1,1,0.00177,0.01880,-0.01683*
1,1,0.00177,-0.01880,-0.01683*
1,1,0.00177,-0.01880,0.01683*
1,1,0.00177,0.01880,0.01683*
%
%ADD16ROUNDEDRECTD16*%
G04:AMPARAMS|DCode=17|XSize=23.62mil|YSize=31.5mil|CornerRadius=0.59mil|HoleSize=0mil|Usage=FLASHONLY|Rotation=90.000|XOffset=0mil|YOffset=0mil|HoleType=Round|Shape=RoundedRectangle|*
%AMROUNDEDRECTD17*
21,1,0.02362,0.03032,0,0,90.0*
21,1,0.02244,0.03150,0,0,90.0*
1,1,0.00118,0.01516,0.01122*
1,1,0.00118,0.01516,-0.01122*
1,1,0.00118,-0.01516,-0.01122*
1,1,0.00118,-0.01516,0.01122*
%
%ADD17ROUNDEDRECTD17*%
G04:AMPARAMS|DCode=18|XSize=35.43mil|YSize=27.56mil|CornerRadius=0.69mil|HoleSize=0mil|Usage=FLASHONLY|Rotation=0.000|XOffset=0mil|YOffset=0mil|HoleType=Round|Shape=RoundedRectangle|*
%AMROUNDEDRECTD18*
21,1,0.03543,0.02618,0,0,0.0*
21,1,0.03406,0.02756,0,0,0.0*
1,1,0.00138,0.01703,-0.01309*
1,1,0.00138,-0.01703,-0.01309*
1,1,0.00138,-0.01703,0.01309*
1,1,0.00138,0.01703,0.01309*
%
%ADD18ROUNDEDRECTD18*%
%ADD19R,0.09843X0.09843*%
%ADD20O,0.00787X0.02953*%
%ADD21O,0.02953X0.00787*%
%ADD22R,0.10630X0.05906*%
%ADD23O,0.06693X0.01772*%
%ADD24R,0.03347X0.01575*%
%ADD25R,0.05906X0.09843*%
%ADD26R,0.03543X0.03150*%
%ADD30C,0.07000*%
%ADD31R,0.07000X0.07000*%
D10*
X39800Y52231D02*
D03*
Y47900D02*
D03*
X3500Y93831D02*
D03*
Y89500D02*
D03*
D11*
X90480Y91500D02*
D03*
Y86500D02*
D03*
Y81500D02*
D03*
X75520Y81500D02*
D03*
Y86500D02*
D03*
Y91500D02*
D03*
D12*
X52500Y25500D02*
D03*
D13*
X46988Y20579D02*
D03*
Y22547D02*
D03*
Y24516D02*
D03*
Y26484D02*
D03*
Y28453D02*
D03*
Y30421D02*
D03*
X58012D02*
D03*
Y28453D02*
D03*
Y26484D02*
D03*
Y24516D02*
D03*
Y22547D02*
D03*
Y20579D02*
D03*
D14*
X51516Y32980D02*
D03*
X53484D02*
D03*
Y18020D02*
D03*
X51516D02*
D03*
D15*
X19000Y23638D02*
D03*
Y28362D02*
D03*
X72500Y44638D02*
D03*
Y49362D02*
D03*
X76500Y47138D02*
D03*
Y51862D02*
D03*
X81400Y47138D02*
D03*
Y51862D02*
D03*
X38900Y63062D02*
D03*
Y58338D02*
D03*
X62500Y75862D02*
D03*
Y71138D02*
D03*
X19000Y68138D02*
D03*
Y72862D02*
D03*
D16*
X56500Y77846D02*
D03*
Y71153D02*
D03*
D17*
X47638Y37500D02*
D03*
X52362D02*
D03*
X35638Y85000D02*
D03*
X40362D02*
D03*
X36138Y90500D02*
D03*
X40862D02*
D03*
D18*
X33500Y49547D02*
D03*
Y55453D02*
D03*
X33500Y41453D02*
D03*
Y35547D02*
D03*
D19*
X56500Y54000D02*
D03*
D20*
X51185Y61972D02*
D03*
X52957D02*
D03*
X54728D02*
D03*
X56500D02*
D03*
X58272D02*
D03*
X60043D02*
D03*
X61815D02*
D03*
Y46028D02*
D03*
X60043D02*
D03*
X58272D02*
D03*
X56500D02*
D03*
X54728D02*
D03*
X52957D02*
D03*
X51185D02*
D03*
D21*
X64472Y59315D02*
D03*
Y57543D02*
D03*
Y55772D02*
D03*
Y54000D02*
D03*
Y52228D02*
D03*
Y50457D02*
D03*
Y48685D02*
D03*
X48528D02*
D03*
Y50457D02*
D03*
Y52228D02*
D03*
Y54000D02*
D03*
Y55772D02*
D03*
Y57543D02*
D03*
Y59315D02*
D03*
D22*
X23500Y41232D02*
D03*
Y49500D02*
D03*
D23*
X26768Y85161D02*
D03*
Y87721D02*
D03*
Y90280D02*
D03*
Y92839D02*
D03*
X10232Y85161D02*
D03*
Y87721D02*
D03*
Y90280D02*
D03*
Y92839D02*
D03*
D24*
X93240Y63659D02*
D03*
Y58541D02*
D03*
X85760D02*
D03*
Y61100D02*
D03*
Y63659D02*
D03*
D25*
X8500Y54500D02*
D03*
Y73500D02*
D03*
Y21000D02*
D03*
Y40000D02*
D03*
X88000Y21000D02*
D03*
Y40000D02*
D03*
D26*
X75700Y23128D02*
D03*
Y32183D02*
D03*
D30*
X8000Y7000D02*
D03*
X18000D02*
D03*
X28000D02*
D03*
X38000D02*
D03*
X48000D02*
D03*
X58000D02*
D03*
X68000D02*
D03*
X78000D02*
D03*
X88000D02*
D03*
X49100Y89100D02*
D03*
D31*
X59100D02*
D03*
M02*
