G04 Layer_Color=2752767*
%FSLAX25Y25*%
%MOIN*%
G70*
G01*
G75*
%ADD96C,0.00500*%
%ADD97C,0.00667*%
D96*
X6000Y5000D02*
Y9000D01*
X10000D01*
Y5000D01*
X6000D01*
X16000D02*
Y9000D01*
X20000D01*
Y5000D01*
X16000D01*
X26000D02*
Y9000D01*
X30000D01*
Y5000D01*
X26000D01*
X36000D02*
Y9000D01*
X40000D01*
Y5000D01*
X36000D01*
X46000D02*
Y9000D01*
X50000D01*
Y5000D01*
X46000D01*
X56000D02*
Y9000D01*
X60000D01*
Y5000D01*
X56000D01*
X66000D02*
Y9000D01*
X70000D01*
Y5000D01*
X66000D01*
X76000D02*
Y9000D01*
X80000D01*
Y5000D01*
X76000D01*
X86000D02*
Y9000D01*
X90000D01*
Y5000D01*
X86000D01*
X57100Y87100D02*
Y91100D01*
X61100D01*
Y87100D01*
X57100D01*
X47100D02*
Y91100D01*
X51100D01*
Y87100D01*
X47100D01*
X62100Y22100D02*
X60100Y26100D01*
X64100D01*
X62100Y22100D01*
X54665Y25665D02*
X55665Y26665D01*
X56665D01*
X55665Y27665D01*
X56665Y28665D01*
X55665D01*
X54665Y29665D01*
X53665Y28665D01*
X52665D01*
X53665Y27665D01*
X52665Y26665D01*
X53665D01*
X54665Y25665D01*
Y21335D02*
X55665Y22335D01*
X56665D01*
X55665Y23335D01*
X56665Y24335D01*
X55665D01*
X54665Y25335D01*
X53665Y24335D01*
X52665D01*
X53665Y23335D01*
X52665Y22335D01*
X53665D01*
X54665Y21335D01*
X50335Y25665D02*
X51335Y26665D01*
X52335D01*
X51335Y27665D01*
X52335Y28665D01*
X51335D01*
X50335Y29665D01*
X49335Y28665D01*
X48335D01*
X49335Y27665D01*
X48335Y26665D01*
X49335D01*
X50335Y25665D01*
Y21335D02*
X51335Y22335D01*
X52335D01*
X51335Y23335D01*
X52335Y24335D01*
X51335D01*
X50335Y25335D01*
X49335Y24335D01*
X48335D01*
X49335Y23335D01*
X48335Y22335D01*
X49335D01*
X50335Y21335D01*
X22700Y64169D02*
X23700Y65168D01*
X24700D01*
X23700Y66168D01*
X24700Y67168D01*
X23700D01*
X22700Y68168D01*
X21700Y67168D01*
X20700D01*
X21700Y66168D01*
X20700Y65168D01*
X21700D01*
X22700Y64169D01*
Y60232D02*
X23700Y61231D01*
X24700D01*
X23700Y62231D01*
X24700Y63231D01*
X23700D01*
X22700Y64231D01*
X21700Y63231D01*
X20700D01*
X21700Y62231D01*
X20700Y61231D01*
X21700D01*
X22700Y60232D01*
X58665Y49835D02*
X59665Y50835D01*
X60665D01*
X59665Y51835D01*
X60665Y52835D01*
X59665D01*
X58665Y53835D01*
X57665Y52835D01*
X56665D01*
X57665Y51835D01*
X56665Y50835D01*
X57665D01*
X58665Y49835D01*
X54335D02*
X55335Y50835D01*
X56335D01*
X55335Y51835D01*
X56335Y52835D01*
X55335D01*
X54335Y53835D01*
X53335Y52835D01*
X52335D01*
X53335Y51835D01*
X52335Y50835D01*
X53335D01*
X54335Y49835D01*
X58665Y54165D02*
X59665Y55165D01*
X60665D01*
X59665Y56165D01*
X60665Y57165D01*
X59665D01*
X58665Y58165D01*
X57665Y57165D01*
X56665D01*
X57665Y56165D01*
X56665Y55165D01*
X57665D01*
X58665Y54165D01*
X54335D02*
X55335Y55165D01*
X56335D01*
X55335Y56165D01*
X56335Y57165D01*
X55335D01*
X54335Y58165D01*
X53335Y57165D01*
X52335D01*
X53335Y56165D01*
X52335Y55165D01*
X53335D01*
X54335Y54165D01*
D97*
X34400Y74500D02*
G03*
X34400Y74500I-2000J0D01*
G01*
X34600Y81400D02*
G03*
X34600Y81400I-2000J0D01*
G01*
X85000Y88500D02*
G03*
X85000Y88500I-2000J0D01*
G01*
X82400Y77500D02*
G03*
X82400Y77500I-2000J0D01*
G01*
X70100Y76300D02*
G03*
X70100Y76300I-2000J0D01*
G01*
X45000Y58200D02*
G03*
X45000Y58200I-2000J0D01*
G01*
X84500Y66100D02*
G03*
X84500Y66100I-2000J0D01*
G01*
X78500D02*
G03*
X78500Y66100I-2000J0D01*
G01*
X85000Y21400D02*
G03*
X85000Y21400I-2000J0D01*
G01*
X56700Y14500D02*
G03*
X56700Y14500I-2000J0D01*
G01*
X64200Y21100D02*
G03*
X64200Y21100I-2000J0D01*
G01*
X64000Y26700D02*
G03*
X64000Y26700I-2000J0D01*
G01*
X66000Y28600D02*
G03*
X66000Y28600I-2000J0D01*
G01*
X47700Y32500D02*
G03*
X47700Y32500I-2000J0D01*
G01*
X92800Y81400D02*
G03*
X92800Y81400I-2000J0D01*
G01*
X49638Y35338D02*
G03*
X49638Y35338I-2000J0D01*
G01*
X26500Y74700D02*
G03*
X26500Y74700I-2000J0D01*
G01*
X69700Y41600D02*
G03*
X69700Y41600I-2000J0D01*
G01*
X48563Y61972D02*
G03*
X48563Y61972I-2000J0D01*
G01*
X57700Y41900D02*
G03*
X57700Y41900I-2000J0D01*
G01*
X60272Y39928D02*
G03*
X60272Y39928I-2000J0D01*
G01*
X67200Y70100D02*
G03*
X67200Y70100I-2000J0D01*
G01*
X65800Y64800D02*
G03*
X65800Y64800I-2000J0D01*
G01*
X67600Y44300D02*
G03*
X67600Y44300I-2000J0D01*
G01*
X69000Y71900D02*
G03*
X69000Y71900I-2000J0D01*
G01*
Y64800D02*
G03*
X69000Y64800I-2000J0D01*
G01*
X69700Y48600D02*
G03*
X69700Y48600I-2000J0D01*
G01*
X63000Y84000D02*
G03*
X63000Y84000I-2000J0D01*
G01*
X67316Y81972D02*
G03*
X67316Y81972I-2000J0D01*
G01*
X61200Y79300D02*
G03*
X61200Y79300I-2000J0D01*
G01*
X71600Y65900D02*
G03*
X71600Y65900I-2000J0D01*
G01*
X14700Y40000D02*
G03*
X14700Y40000I-2000J0D01*
G01*
X58500Y37400D02*
G03*
X58500Y37400I-2000J0D01*
G01*
X42800Y23000D02*
G03*
X42800Y23000I-2000J0D01*
G01*
X83600Y43700D02*
G03*
X83600Y43700I-2000J0D01*
G01*
X49400Y65600D02*
G03*
X49400Y65600I-2000J0D01*
G01*
X60300D02*
G03*
X60300Y65600I-2000J0D01*
G01*
X63500Y67800D02*
G03*
X63500Y67800I-2000J0D01*
G01*
X50400Y68000D02*
G03*
X50400Y68000I-2000J0D01*
G01*
X87400Y94000D02*
G03*
X87400Y94000I-2000J0D01*
G01*
X44411Y94457D02*
G03*
X44411Y94457I-2000J0D01*
G01*
X38500Y60000D02*
G03*
X38500Y60000I-2000J0D01*
G01*
X45500Y90500D02*
G03*
X45500Y90500I-2000J0D01*
G01*
M02*
