G04 Layer_Color=16711935*
%FSLAX25Y25*%
%MOIN*%
G70*
G01*
G75*
G04:AMPARAMS|DCode=65|XSize=39.37mil|YSize=31.5mil|CornerRadius=2.66mil|HoleSize=0mil|Usage=FLASHONLY|Rotation=0.000|XOffset=0mil|YOffset=0mil|HoleType=Round|Shape=RoundedRectangle|*
%AMROUNDEDRECTD65*
21,1,0.03937,0.02618,0,0,0.0*
21,1,0.03406,0.03150,0,0,0.0*
1,1,0.00532,0.01703,-0.01309*
1,1,0.00532,-0.01703,-0.01309*
1,1,0.00532,-0.01703,0.01309*
1,1,0.00532,0.01703,0.01309*
%
%ADD65ROUNDEDRECTD65*%
%ADD73R,0.04343X0.03950*%
%ADD74C,0.07800*%
%ADD75R,0.07800X0.07800*%
%ADD76R,0.16548X0.07493*%
%ADD77R,0.20485X0.08674*%
%ADD78R,0.03950X0.04343*%
G04:AMPARAMS|DCode=79|XSize=43.31mil|YSize=39.37mil|CornerRadius=2.85mil|HoleSize=0mil|Usage=FLASHONLY|Rotation=90.000|XOffset=0mil|YOffset=0mil|HoleType=Round|Shape=RoundedRectangle|*
%AMROUNDEDRECTD79*
21,1,0.04331,0.03366,0,0,90.0*
21,1,0.03760,0.03937,0,0,90.0*
1,1,0.00571,0.01683,0.01880*
1,1,0.00571,0.01683,-0.01880*
1,1,0.00571,-0.01683,-0.01880*
1,1,0.00571,-0.01683,0.01880*
%
%ADD79ROUNDEDRECTD79*%
%ADD80O,0.07493X0.02178*%
G04:AMPARAMS|DCode=81|XSize=39.37mil|YSize=31.5mil|CornerRadius=2.66mil|HoleSize=0mil|Usage=FLASHONLY|Rotation=90.000|XOffset=0mil|YOffset=0mil|HoleType=Round|Shape=RoundedRectangle|*
%AMROUNDEDRECTD81*
21,1,0.03937,0.02618,0,0,90.0*
21,1,0.03406,0.03150,0,0,90.0*
1,1,0.00532,0.01309,0.01703*
1,1,0.00532,0.01309,-0.01703*
1,1,0.00532,-0.01309,-0.01703*
1,1,0.00532,-0.01309,0.01703*
%
%ADD81ROUNDEDRECTD81*%
%ADD82R,0.05524X0.05524*%
%ADD83R,0.04737X0.03162*%
G04:AMPARAMS|DCode=84|XSize=66.99mil|YSize=82.74mil|CornerRadius=3.58mil|HoleSize=0mil|Usage=FLASHONLY|Rotation=270.000|XOffset=0mil|YOffset=0mil|HoleType=Round|Shape=RoundedRectangle|*
%AMROUNDEDRECTD84*
21,1,0.06699,0.07559,0,0,270.0*
21,1,0.05984,0.08274,0,0,270.0*
1,1,0.00715,-0.03780,-0.02992*
1,1,0.00715,-0.03780,0.02992*
1,1,0.00715,0.03780,0.02992*
1,1,0.00715,0.03780,-0.02992*
%
%ADD84ROUNDEDRECTD84*%
G04:AMPARAMS|DCode=85|XSize=78.8mil|YSize=74.87mil|CornerRadius=3.77mil|HoleSize=0mil|Usage=FLASHONLY|Rotation=270.000|XOffset=0mil|YOffset=0mil|HoleType=Round|Shape=RoundedRectangle|*
%AMROUNDEDRECTD85*
21,1,0.07880,0.06732,0,0,270.0*
21,1,0.07126,0.07487,0,0,270.0*
1,1,0.00754,-0.03366,-0.03563*
1,1,0.00754,-0.03366,0.03563*
1,1,0.00754,0.03366,0.03563*
1,1,0.00754,0.03366,-0.03563*
%
%ADD85ROUNDEDRECTD85*%
G04:AMPARAMS|DCode=86|XSize=57.15mil|YSize=19.75mil|CornerRadius=2.39mil|HoleSize=0mil|Usage=FLASHONLY|Rotation=270.000|XOffset=0mil|YOffset=0mil|HoleType=Round|Shape=RoundedRectangle|*
%AMROUNDEDRECTD86*
21,1,0.05715,0.01496,0,0,270.0*
21,1,0.05236,0.01975,0,0,270.0*
1,1,0.00479,-0.00748,-0.02618*
1,1,0.00479,-0.00748,0.02618*
1,1,0.00479,0.00748,0.02618*
1,1,0.00479,0.00748,-0.02618*
%
%ADD86ROUNDEDRECTD86*%
G04:AMPARAMS|DCode=87|XSize=23.69mil|YSize=27.62mil|CornerRadius=2.49mil|HoleSize=0mil|Usage=FLASHONLY|Rotation=180.000|XOffset=0mil|YOffset=0mil|HoleType=Round|Shape=RoundedRectangle|*
%AMROUNDEDRECTD87*
21,1,0.02369,0.02264,0,0,180.0*
21,1,0.01870,0.02762,0,0,180.0*
1,1,0.00498,-0.00935,0.01132*
1,1,0.00498,0.00935,0.01132*
1,1,0.00498,0.00935,-0.01132*
1,1,0.00498,-0.00935,-0.01132*
%
%ADD87ROUNDEDRECTD87*%
G04:AMPARAMS|DCode=88|XSize=23.69mil|YSize=27.62mil|CornerRadius=2.49mil|HoleSize=0mil|Usage=FLASHONLY|Rotation=90.000|XOffset=0mil|YOffset=0mil|HoleType=Round|Shape=RoundedRectangle|*
%AMROUNDEDRECTD88*
21,1,0.02369,0.02264,0,0,90.0*
21,1,0.01870,0.02762,0,0,90.0*
1,1,0.00498,0.01132,0.00935*
1,1,0.00498,0.01132,-0.00935*
1,1,0.00498,-0.01132,-0.00935*
1,1,0.00498,-0.01132,0.00935*
%
%ADD88ROUNDEDRECTD88*%
%ADD89R,0.01981X0.03753*%
%ADD90R,0.06509X0.07690*%
%ADD91R,0.14186X0.04737*%
%ADD92R,0.14186X0.06706*%
D65*
X80500Y80653D02*
D03*
Y74747D02*
D03*
X30400Y68747D02*
D03*
Y74653D02*
D03*
D73*
X41700Y65245D02*
D03*
Y74300D02*
D03*
X35700Y65245D02*
D03*
Y74300D02*
D03*
D74*
X8000Y7000D02*
D03*
X18000D02*
D03*
X28000D02*
D03*
X38000D02*
D03*
X48000D02*
D03*
X58000D02*
D03*
X68000D02*
D03*
X78000D02*
D03*
X88000D02*
D03*
X49100Y89100D02*
D03*
D75*
X59100D02*
D03*
D76*
X83000Y22386D02*
D03*
D77*
Y59000D02*
D03*
D78*
X79855Y70100D02*
D03*
X70800D02*
D03*
D79*
X74847Y79000D02*
D03*
X68154D02*
D03*
X93247Y79100D02*
D03*
X86554D02*
D03*
D80*
X92120Y93039D02*
D03*
Y90479D02*
D03*
Y87920D02*
D03*
Y85361D02*
D03*
X69679Y93039D02*
D03*
Y90479D02*
D03*
Y87920D02*
D03*
Y85361D02*
D03*
D81*
X20547Y74200D02*
D03*
X26453D02*
D03*
D82*
X5000Y65634D02*
D03*
Y57366D02*
D03*
D83*
X6276Y70300D02*
D03*
X15724Y66560D02*
D03*
Y74040D02*
D03*
D84*
X33205Y81764D02*
D03*
X8795D02*
D03*
D85*
X5252Y91606D02*
D03*
X36748D02*
D03*
D86*
X26118Y80976D02*
D03*
X23559D02*
D03*
X21000D02*
D03*
X18441D02*
D03*
X15882D02*
D03*
D87*
X16700Y58232D02*
D03*
Y62169D02*
D03*
D88*
X9532Y62300D02*
D03*
X13468D02*
D03*
D89*
X19747Y69909D02*
D03*
X21716D02*
D03*
X23684D02*
D03*
X25653D02*
D03*
Y58491D02*
D03*
X23684D02*
D03*
X21716D02*
D03*
X19747D02*
D03*
D90*
X22700Y64200D02*
D03*
D91*
X31663Y32864D02*
D03*
Y40737D02*
D03*
D92*
X7451Y24005D02*
D03*
Y49596D02*
D03*
M02*
