G04 Layer_Color=16711935*
%FSLAX25Y25*%
%MOIN*%
G70*
G01*
G75*
%ADD55C,0.00394*%
D55*
X52894Y21957D02*
G03*
X52894Y21957I-1969J0D01*
G01*
X88183Y91759D02*
G03*
X88183Y91759I-1969J0D01*
G01*
X24078Y66759D02*
G03*
X24078Y66759I-1969J0D01*
G01*
X54039Y58429D02*
G03*
X54039Y58429I-1969J0D01*
G01*
X17910Y91559D02*
G03*
X17910Y91559I-1969J0D01*
G01*
X57618Y18413D02*
Y32587D01*
X47382Y18413D02*
Y32587D01*
X57618D01*
X47382Y18413D02*
X57618D01*
X78630Y74353D02*
Y81046D01*
X82370Y74353D02*
Y81046D01*
X78630D02*
X82370D01*
X78630Y74353D02*
X82370D01*
X74847Y77130D02*
Y80870D01*
X68154Y77130D02*
Y80870D01*
X74847D01*
X68154Y77130D02*
X74847D01*
X93247Y77230D02*
Y80970D01*
X86554Y77230D02*
Y80970D01*
X93247D01*
X86554Y77230D02*
X93247D01*
X89758Y83098D02*
Y95302D01*
X72042Y83098D02*
Y95302D01*
X89758D01*
X72042Y83098D02*
X89758D01*
X17819Y23835D02*
X20181D01*
X17819Y28165D02*
X20181D01*
X17819Y23835D02*
Y28165D01*
X20181Y23835D02*
Y28165D01*
X71319Y44835D02*
X73681D01*
X71319Y49165D02*
X73681D01*
X71319Y44835D02*
Y49165D01*
X73681Y44835D02*
Y49165D01*
X75319Y47335D02*
X77681D01*
X75319Y51665D02*
X77681D01*
X75319Y47335D02*
Y51665D01*
X77681Y47335D02*
Y51665D01*
X80219Y47335D02*
X82581D01*
X80219Y51665D02*
X82581D01*
X80219Y47335D02*
Y51665D01*
X82581Y47335D02*
Y51665D01*
X20154Y72330D02*
X26846D01*
X20154Y76070D02*
X26846D01*
X20154Y72330D02*
Y76070D01*
X26846Y72330D02*
Y76070D01*
X32270Y68353D02*
Y75046D01*
X28530Y68353D02*
Y75046D01*
Y68353D02*
X32270D01*
X28530Y75046D02*
X32270D01*
X1850Y65634D02*
X8150D01*
X1850Y57366D02*
X8150D01*
X1850D02*
Y65634D01*
X8150Y57366D02*
Y65634D01*
X8244Y64316D02*
X13756D01*
X8244Y76284D02*
X13756D01*
X8244Y64316D02*
Y76284D01*
X13756Y64316D02*
Y76284D01*
X17881Y58035D02*
Y62365D01*
X15519Y58035D02*
Y62365D01*
Y58035D02*
X17881D01*
X15519Y62365D02*
X17881D01*
X9335Y61119D02*
X13665D01*
X9335Y63481D02*
X13665D01*
X9335Y61119D02*
Y63481D01*
X13665Y61119D02*
Y63481D01*
X18566Y58098D02*
Y70302D01*
X26834Y58098D02*
Y70302D01*
X18566Y58098D02*
X26834D01*
X18566Y70302D02*
X26834D01*
X54630Y77846D02*
X58370D01*
X54630Y71153D02*
X58370D01*
Y77846D01*
X54630Y71153D02*
Y77846D01*
X37719Y62865D02*
X40081D01*
X37719Y58535D02*
X40081D01*
Y62865D01*
X37719Y58535D02*
Y62865D01*
X47835Y36319D02*
Y38681D01*
X52165Y36319D02*
Y38681D01*
X47835D02*
X52165D01*
X47835Y36319D02*
X52165D01*
X31630Y49154D02*
Y55847D01*
X35370Y49154D02*
Y55847D01*
X31630Y49154D02*
X35370D01*
X31630Y55847D02*
X35370D01*
X35370Y35154D02*
Y41846D01*
X31630Y35154D02*
Y41846D01*
X35370D01*
X31630Y35154D02*
X35370D01*
X61319Y75665D02*
X63681D01*
X61319Y71335D02*
X63681D01*
Y75665D01*
X61319Y71335D02*
Y75665D01*
X17819Y68335D02*
X20181D01*
X17819Y72665D02*
X20181D01*
X17819Y68335D02*
Y72665D01*
X20181Y68335D02*
Y72665D01*
X35835Y83819D02*
Y86181D01*
X40165Y83819D02*
Y86181D01*
X35835D02*
X40165D01*
X35835Y83819D02*
X40165D01*
X36335Y89319D02*
Y91681D01*
X40665Y89319D02*
Y91681D01*
X36335D02*
X40665D01*
X36335Y89319D02*
X40665D01*
X48528Y46028D02*
X64472D01*
X48528Y61972D02*
X64472D01*
Y46028D02*
Y61972D01*
X48528Y46028D02*
Y61972D01*
X12398Y82898D02*
X24602D01*
X12398Y95102D02*
X24602D01*
Y82898D02*
Y95102D01*
X12398Y82898D02*
Y95102D01*
X86843Y56966D02*
X92158D01*
X86843Y65234D02*
X92158D01*
Y56966D02*
Y65234D01*
X86843Y56966D02*
Y65234D01*
M02*
