G04 Layer_Color=8388736*
%FSLAX25Y25*%
%MOIN*%
G70*
G01*
G75*
%ADD57R,0.04737X0.02769*%
%ADD58R,0.10249X0.03792*%
%ADD59R,0.08674X0.10642*%
%ADD60O,0.02375X0.01784*%
%ADD61O,0.01784X0.02375*%
G04:AMPARAMS|DCode=62|XSize=27.62mil|YSize=35.5mil|CornerRadius=2.59mil|HoleSize=0mil|Usage=FLASHONLY|Rotation=180.000|XOffset=0mil|YOffset=0mil|HoleType=Round|Shape=RoundedRectangle|*
%AMROUNDEDRECTD62*
21,1,0.02762,0.03032,0,0,180.0*
21,1,0.02244,0.03550,0,0,180.0*
1,1,0.00518,-0.01122,0.01516*
1,1,0.00518,0.01122,0.01516*
1,1,0.00518,0.01122,-0.01516*
1,1,0.00518,-0.01122,-0.01516*
%
%ADD62ROUNDEDRECTD62*%
G04:AMPARAMS|DCode=63|XSize=43.31mil|YSize=39.37mil|CornerRadius=2.85mil|HoleSize=0mil|Usage=FLASHONLY|Rotation=0.000|XOffset=0mil|YOffset=0mil|HoleType=Round|Shape=RoundedRectangle|*
%AMROUNDEDRECTD63*
21,1,0.04331,0.03366,0,0,0.0*
21,1,0.03760,0.03937,0,0,0.0*
1,1,0.00571,0.01880,-0.01683*
1,1,0.00571,-0.01880,-0.01683*
1,1,0.00571,-0.01880,0.01683*
1,1,0.00571,0.01880,0.01683*
%
%ADD63ROUNDEDRECTD63*%
G04:AMPARAMS|DCode=64|XSize=27.62mil|YSize=35.5mil|CornerRadius=2.59mil|HoleSize=0mil|Usage=FLASHONLY|Rotation=90.000|XOffset=0mil|YOffset=0mil|HoleType=Round|Shape=RoundedRectangle|*
%AMROUNDEDRECTD64*
21,1,0.02762,0.03032,0,0,90.0*
21,1,0.02244,0.03550,0,0,90.0*
1,1,0.00518,0.01516,0.01122*
1,1,0.00518,0.01516,-0.01122*
1,1,0.00518,-0.01516,-0.01122*
1,1,0.00518,-0.01516,0.01122*
%
%ADD64ROUNDEDRECTD64*%
G04:AMPARAMS|DCode=65|XSize=39.37mil|YSize=31.5mil|CornerRadius=2.66mil|HoleSize=0mil|Usage=FLASHONLY|Rotation=0.000|XOffset=0mil|YOffset=0mil|HoleType=Round|Shape=RoundedRectangle|*
%AMROUNDEDRECTD65*
21,1,0.03937,0.02618,0,0,0.0*
21,1,0.03406,0.03150,0,0,0.0*
1,1,0.00532,0.01703,-0.01309*
1,1,0.00532,-0.01703,-0.01309*
1,1,0.00532,-0.01703,0.01309*
1,1,0.00532,0.01703,0.01309*
%
%ADD65ROUNDEDRECTD65*%
%ADD66R,0.10642X0.10642*%
%ADD67O,0.01587X0.03753*%
%ADD68O,0.03753X0.01587*%
%ADD69R,0.11430X0.06706*%
%ADD70O,0.07493X0.02572*%
%ADD71R,0.04147X0.02375*%
%ADD72R,0.06706X0.10642*%
%ADD73R,0.04343X0.03950*%
%ADD74C,0.07800*%
%ADD75R,0.07800X0.07800*%
D57*
X39800Y52231D02*
D03*
Y47900D02*
D03*
X3500Y93831D02*
D03*
Y89500D02*
D03*
D58*
X90480Y91500D02*
D03*
Y86500D02*
D03*
Y81500D02*
D03*
X75520Y81500D02*
D03*
Y86500D02*
D03*
Y91500D02*
D03*
D59*
X52500Y25500D02*
D03*
D60*
X46988Y20579D02*
D03*
Y22547D02*
D03*
Y24516D02*
D03*
Y26484D02*
D03*
Y28453D02*
D03*
Y30421D02*
D03*
X58012D02*
D03*
Y28453D02*
D03*
Y26484D02*
D03*
Y24516D02*
D03*
Y22547D02*
D03*
Y20579D02*
D03*
D61*
X51516Y32980D02*
D03*
X53484D02*
D03*
Y18020D02*
D03*
X51516D02*
D03*
D62*
X19000Y23638D02*
D03*
Y28362D02*
D03*
X72500Y44638D02*
D03*
Y49362D02*
D03*
X76500Y47138D02*
D03*
Y51862D02*
D03*
X81400Y47138D02*
D03*
Y51862D02*
D03*
X38900Y63062D02*
D03*
Y58338D02*
D03*
X62500Y75862D02*
D03*
Y71138D02*
D03*
X19000Y68138D02*
D03*
Y72862D02*
D03*
D63*
X56500Y77846D02*
D03*
Y71153D02*
D03*
D64*
X47638Y37500D02*
D03*
X52362D02*
D03*
X35638Y85000D02*
D03*
X40362D02*
D03*
X36138Y90500D02*
D03*
X40862D02*
D03*
D65*
X33500Y49547D02*
D03*
Y55453D02*
D03*
X33500Y41453D02*
D03*
Y35547D02*
D03*
D66*
X56500Y54000D02*
D03*
D67*
X51185Y61972D02*
D03*
X52957D02*
D03*
X54728D02*
D03*
X56500D02*
D03*
X58272D02*
D03*
X60043D02*
D03*
X61815D02*
D03*
Y46028D02*
D03*
X60043D02*
D03*
X58272D02*
D03*
X56500D02*
D03*
X54728D02*
D03*
X52957D02*
D03*
X51185D02*
D03*
D68*
X64472Y59315D02*
D03*
Y57543D02*
D03*
Y55772D02*
D03*
Y54000D02*
D03*
Y52228D02*
D03*
Y50457D02*
D03*
Y48685D02*
D03*
X48528D02*
D03*
Y50457D02*
D03*
Y52228D02*
D03*
Y54000D02*
D03*
Y55772D02*
D03*
Y57543D02*
D03*
Y59315D02*
D03*
D69*
X23500Y41232D02*
D03*
Y49500D02*
D03*
D70*
X26768Y85161D02*
D03*
Y87721D02*
D03*
Y90280D02*
D03*
Y92839D02*
D03*
X10232Y85161D02*
D03*
Y87721D02*
D03*
Y90280D02*
D03*
Y92839D02*
D03*
D71*
X93240Y63659D02*
D03*
Y58541D02*
D03*
X85760D02*
D03*
Y61100D02*
D03*
Y63659D02*
D03*
D72*
X8500Y54500D02*
D03*
Y73500D02*
D03*
Y21000D02*
D03*
Y40000D02*
D03*
X88000Y21000D02*
D03*
Y40000D02*
D03*
D73*
X75700Y23128D02*
D03*
Y32183D02*
D03*
D74*
X8000Y7000D02*
D03*
X18000D02*
D03*
X28000D02*
D03*
X38000D02*
D03*
X48000D02*
D03*
X58000D02*
D03*
X68000D02*
D03*
X78000D02*
D03*
X88000D02*
D03*
X49100Y89100D02*
D03*
D75*
X59100D02*
D03*
M02*
