G04 Layer_Physical_Order=2*
G04 Layer_Color=16711680*
%FSLAX25Y25*%
%MOIN*%
G70*
G01*
G75*
G04:AMPARAMS|DCode=18|XSize=35.43mil|YSize=27.56mil|CornerRadius=0.69mil|HoleSize=0mil|Usage=FLASHONLY|Rotation=0.000|XOffset=0mil|YOffset=0mil|HoleType=Round|Shape=RoundedRectangle|*
%AMROUNDEDRECTD18*
21,1,0.03543,0.02618,0,0,0.0*
21,1,0.03406,0.02756,0,0,0.0*
1,1,0.00138,0.01703,-0.01309*
1,1,0.00138,-0.01703,-0.01309*
1,1,0.00138,-0.01703,0.01309*
1,1,0.00138,0.01703,0.01309*
%
%ADD18ROUNDEDRECTD18*%
%ADD26R,0.03543X0.03150*%
%ADD27C,0.00600*%
%ADD28C,0.01000*%
%ADD29C,0.00800*%
%ADD30C,0.07000*%
%ADD31R,0.07000X0.07000*%
%ADD32C,0.01800*%
%ADD33C,0.01969*%
%ADD34R,0.15748X0.06693*%
%ADD35R,0.19685X0.07874*%
%ADD36R,0.03150X0.03543*%
G04:AMPARAMS|DCode=37|XSize=39.37mil|YSize=35.43mil|CornerRadius=0.89mil|HoleSize=0mil|Usage=FLASHONLY|Rotation=90.000|XOffset=0mil|YOffset=0mil|HoleType=Round|Shape=RoundedRectangle|*
%AMROUNDEDRECTD37*
21,1,0.03937,0.03366,0,0,90.0*
21,1,0.03760,0.03543,0,0,90.0*
1,1,0.00177,0.01683,0.01880*
1,1,0.00177,0.01683,-0.01880*
1,1,0.00177,-0.01683,-0.01880*
1,1,0.00177,-0.01683,0.01880*
%
%ADD37ROUNDEDRECTD37*%
%ADD38O,0.06693X0.01378*%
G04:AMPARAMS|DCode=39|XSize=35.43mil|YSize=27.56mil|CornerRadius=0.69mil|HoleSize=0mil|Usage=FLASHONLY|Rotation=90.000|XOffset=0mil|YOffset=0mil|HoleType=Round|Shape=RoundedRectangle|*
%AMROUNDEDRECTD39*
21,1,0.03543,0.02618,0,0,90.0*
21,1,0.03406,0.02756,0,0,90.0*
1,1,0.00138,0.01309,0.01703*
1,1,0.00138,0.01309,-0.01703*
1,1,0.00138,-0.01309,-0.01703*
1,1,0.00138,-0.01309,0.01703*
%
%ADD39ROUNDEDRECTD39*%
%ADD40R,0.04724X0.04724*%
%ADD41R,0.03937X0.02362*%
G04:AMPARAMS|DCode=42|XSize=62.99mil|YSize=78.74mil|CornerRadius=1.58mil|HoleSize=0mil|Usage=FLASHONLY|Rotation=270.000|XOffset=0mil|YOffset=0mil|HoleType=Round|Shape=RoundedRectangle|*
%AMROUNDEDRECTD42*
21,1,0.06299,0.07559,0,0,270.0*
21,1,0.05984,0.07874,0,0,270.0*
1,1,0.00315,-0.03780,-0.02992*
1,1,0.00315,-0.03780,0.02992*
1,1,0.00315,0.03780,0.02992*
1,1,0.00315,0.03780,-0.02992*
%
%ADD42ROUNDEDRECTD42*%
G04:AMPARAMS|DCode=43|XSize=74.8mil|YSize=70.87mil|CornerRadius=1.77mil|HoleSize=0mil|Usage=FLASHONLY|Rotation=270.000|XOffset=0mil|YOffset=0mil|HoleType=Round|Shape=RoundedRectangle|*
%AMROUNDEDRECTD43*
21,1,0.07480,0.06732,0,0,270.0*
21,1,0.07126,0.07087,0,0,270.0*
1,1,0.00354,-0.03366,-0.03563*
1,1,0.00354,-0.03366,0.03563*
1,1,0.00354,0.03366,0.03563*
1,1,0.00354,0.03366,-0.03563*
%
%ADD43ROUNDEDRECTD43*%
G04:AMPARAMS|DCode=44|XSize=53.15mil|YSize=15.75mil|CornerRadius=0.39mil|HoleSize=0mil|Usage=FLASHONLY|Rotation=270.000|XOffset=0mil|YOffset=0mil|HoleType=Round|Shape=RoundedRectangle|*
%AMROUNDEDRECTD44*
21,1,0.05315,0.01496,0,0,270.0*
21,1,0.05236,0.01575,0,0,270.0*
1,1,0.00079,-0.00748,-0.02618*
1,1,0.00079,-0.00748,0.02618*
1,1,0.00079,0.00748,0.02618*
1,1,0.00079,0.00748,-0.02618*
%
%ADD44ROUNDEDRECTD44*%
G04:AMPARAMS|DCode=45|XSize=19.69mil|YSize=23.62mil|CornerRadius=0.49mil|HoleSize=0mil|Usage=FLASHONLY|Rotation=180.000|XOffset=0mil|YOffset=0mil|HoleType=Round|Shape=RoundedRectangle|*
%AMROUNDEDRECTD45*
21,1,0.01969,0.02264,0,0,180.0*
21,1,0.01870,0.02362,0,0,180.0*
1,1,0.00098,-0.00935,0.01132*
1,1,0.00098,0.00935,0.01132*
1,1,0.00098,0.00935,-0.01132*
1,1,0.00098,-0.00935,-0.01132*
%
%ADD45ROUNDEDRECTD45*%
G04:AMPARAMS|DCode=46|XSize=19.69mil|YSize=23.62mil|CornerRadius=0.49mil|HoleSize=0mil|Usage=FLASHONLY|Rotation=90.000|XOffset=0mil|YOffset=0mil|HoleType=Round|Shape=RoundedRectangle|*
%AMROUNDEDRECTD46*
21,1,0.01969,0.02264,0,0,90.0*
21,1,0.01870,0.02362,0,0,90.0*
1,1,0.00098,0.01132,0.00935*
1,1,0.00098,0.01132,-0.00935*
1,1,0.00098,-0.01132,-0.00935*
1,1,0.00098,-0.01132,0.00935*
%
%ADD46ROUNDEDRECTD46*%
%ADD47R,0.01181X0.02953*%
%ADD48R,0.05709X0.06890*%
%ADD49R,0.13386X0.03937*%
%ADD50R,0.13386X0.05906*%
G36*
X65818Y87403D02*
X66093Y86991D01*
X66519Y86706D01*
X67022Y86606D01*
X72337D01*
X72840Y86706D01*
X73266Y86991D01*
X73721Y86881D01*
X73782Y86820D01*
Y84380D01*
X71526Y82124D01*
X71327Y81826D01*
X71257Y81475D01*
Y76711D01*
X71327Y76359D01*
X71526Y76062D01*
X77680Y69907D01*
Y67728D01*
X78938D01*
Y63537D01*
X73242D01*
X73035Y64037D01*
X74049Y65051D01*
X74248Y65349D01*
X74318Y65700D01*
Y72119D01*
X74248Y72470D01*
X74049Y72768D01*
X72068Y74749D01*
X71770Y74948D01*
X71419Y75018D01*
X69648D01*
X69381Y75518D01*
X69513Y75715D01*
X69629Y76300D01*
X70105Y76471D01*
X70105Y76472D01*
X70333Y76624D01*
X70485Y76851D01*
X70539Y77120D01*
Y80880D01*
X70485Y81149D01*
X70333Y81376D01*
X70105Y81529D01*
X69837Y81582D01*
X69071D01*
Y82846D01*
X69001Y83198D01*
X68802Y83495D01*
X67876Y84421D01*
X67579Y84620D01*
X67228Y84690D01*
X66208D01*
X65318Y85580D01*
Y87320D01*
X65778Y87412D01*
X65818Y87403D01*
D02*
G37*
G36*
X88319Y86748D02*
X88534Y86291D01*
X88249Y85864D01*
X88170Y85468D01*
X85905Y83202D01*
X85706Y82905D01*
X85636Y82553D01*
Y81682D01*
X84870D01*
X84602Y81629D01*
X84374Y81476D01*
X84222Y81249D01*
X84168Y80980D01*
Y77220D01*
X84222Y76951D01*
X84374Y76724D01*
X84602Y76572D01*
X84870Y76518D01*
X88237D01*
X88505Y76572D01*
X88733Y76724D01*
X88885Y76951D01*
X88939Y77220D01*
Y80980D01*
X88885Y81249D01*
X88733Y81476D01*
X88505Y81629D01*
X88237Y81682D01*
X87492D01*
X87480Y82182D01*
X89364Y84067D01*
X89463Y84047D01*
X94778D01*
X94835Y84059D01*
X95335Y83648D01*
Y73322D01*
X84900D01*
X84471Y73236D01*
X84107Y72993D01*
X83864Y72629D01*
X83778Y72200D01*
Y67200D01*
X83864Y66771D01*
X84107Y66407D01*
X84471Y66164D01*
X84900Y66078D01*
X95335D01*
Y54822D01*
X93442D01*
Y63537D01*
X80773D01*
Y67728D01*
X82030D01*
Y72472D01*
X77711D01*
X74227Y75956D01*
X74418Y76418D01*
X76530D01*
X76798Y76472D01*
X77026Y76624D01*
X77178Y76851D01*
X77232Y77120D01*
Y78082D01*
X78847D01*
X79198Y78152D01*
X79496Y78351D01*
X79807Y78662D01*
X82203D01*
X82464Y78714D01*
X82685Y78861D01*
X82833Y79083D01*
X82885Y79344D01*
Y81740D01*
X88070Y86925D01*
X88108Y86931D01*
X88319Y86748D01*
D02*
G37*
G36*
X33328Y72273D02*
X31793Y70738D01*
X30117D01*
X30090Y70756D01*
X29739Y70826D01*
X26843D01*
Y71985D01*
X22907D01*
X22851Y72018D01*
X22536Y72485D01*
X22538Y72497D01*
Y74996D01*
X23622Y76080D01*
X33328D01*
Y72273D01*
D02*
G37*
G36*
X95335Y94752D02*
X94835Y94341D01*
X94778Y94353D01*
X89463D01*
X88960Y94253D01*
X88534Y93968D01*
X88249Y93542D01*
X88149Y93039D01*
X88249Y92536D01*
X88534Y92109D01*
X88960Y91824D01*
X89463Y91724D01*
X94778D01*
X94835Y91736D01*
X95335Y91325D01*
Y89634D01*
X94835Y89223D01*
X94778Y89235D01*
X89463D01*
X88960Y89135D01*
X88534Y88850D01*
X88526Y88838D01*
X87768D01*
X87417Y88768D01*
X87119Y88569D01*
X81193Y82644D01*
X78797D01*
X78536Y82592D01*
X78315Y82444D01*
X78167Y82223D01*
X78115Y81962D01*
Y79918D01*
X77232D01*
Y80880D01*
X77178Y81149D01*
X77026Y81376D01*
X76798Y81529D01*
X76530Y81582D01*
X74233D01*
X74042Y82044D01*
X75349Y83351D01*
X75548Y83649D01*
X75618Y84000D01*
Y87200D01*
X75548Y87551D01*
X75349Y87849D01*
X74628Y88569D01*
X74331Y88768D01*
X73980Y88838D01*
X73274D01*
X73266Y88850D01*
X73192Y88899D01*
Y89501D01*
X73266Y89550D01*
X73317Y89625D01*
X73451Y89652D01*
X73749Y89851D01*
X75149Y91251D01*
X75348Y91549D01*
X75418Y91900D01*
Y94157D01*
X75348Y94508D01*
X75149Y94806D01*
X75081Y94873D01*
X75273Y95335D01*
X83887D01*
X84154Y94835D01*
X83987Y94585D01*
X83871Y94000D01*
X83987Y93415D01*
X84319Y92919D01*
X84815Y92587D01*
X85400Y92471D01*
X85985Y92587D01*
X86481Y92919D01*
X86813Y93415D01*
X86929Y94000D01*
X86813Y94585D01*
X86646Y94835D01*
X86913Y95335D01*
X95335D01*
Y94752D01*
D02*
G37*
G36*
X40957Y94835D02*
X40882Y94457D01*
X40998Y93871D01*
X41330Y93375D01*
X41826Y93044D01*
X42411Y92927D01*
X42582Y92452D01*
Y91691D01*
X42419Y91581D01*
X42087Y91085D01*
X41971Y90500D01*
X42087Y89915D01*
X42419Y89419D01*
X42582Y89309D01*
Y77900D01*
X42652Y77549D01*
X42851Y77251D01*
X43128Y76975D01*
X42944Y76531D01*
X42458Y76484D01*
X41121Y77821D01*
X40790Y78042D01*
X40400Y78120D01*
X25155D01*
X24959Y78358D01*
Y83595D01*
X24909Y83844D01*
X24768Y84056D01*
X24556Y84197D01*
X24307Y84246D01*
X22811D01*
X22561Y84197D01*
X22350Y84056D01*
X22209D01*
X21997Y84197D01*
X21748Y84246D01*
X20252D01*
X20003Y84197D01*
X19791Y84056D01*
X19650D01*
X19439Y84197D01*
X19189Y84246D01*
X17693D01*
X17444Y84197D01*
X17232Y84056D01*
X17091D01*
X16879Y84197D01*
X16630Y84246D01*
X15134D01*
X14884Y84197D01*
X14673Y84056D01*
X14532Y83844D01*
X14482Y83595D01*
Y78358D01*
X14532Y78109D01*
X14673Y77897D01*
X14884Y77756D01*
X15134Y77706D01*
X15696D01*
X18556Y74846D01*
Y72497D01*
X18559Y72485D01*
X18557Y71985D01*
X18557Y71985D01*
X18557Y71985D01*
Y70826D01*
X17209D01*
X16858Y70756D01*
X16560Y70557D01*
X15076Y69073D01*
X14877Y68776D01*
X14807Y68424D01*
Y68341D01*
X13156D01*
Y64779D01*
X18293D01*
Y67441D01*
X18557Y67832D01*
X26843D01*
Y68991D01*
X28015D01*
Y67438D01*
X28067Y67177D01*
X28215Y66956D01*
X28436Y66808D01*
X28697Y66756D01*
X29482D01*
Y57800D01*
Y43306D01*
X24370D01*
Y38169D01*
X23891Y38118D01*
X22380D01*
X19849Y40649D01*
X19551Y40848D01*
X19200Y40918D01*
X13891D01*
X13781Y41081D01*
X13285Y41413D01*
X12700Y41529D01*
X12115Y41413D01*
X11619Y41081D01*
X11287Y40585D01*
X11171Y40000D01*
X11287Y39415D01*
X11619Y38919D01*
X12115Y38587D01*
X12700Y38471D01*
X13285Y38587D01*
X13781Y38919D01*
X13891Y39082D01*
X18820D01*
X21351Y36551D01*
X21649Y36352D01*
X22000Y36282D01*
X38700D01*
X39051Y36352D01*
X39349Y36551D01*
X41808Y39011D01*
X54919D01*
X55168Y38511D01*
X55023Y38318D01*
X42600D01*
X42249Y38248D01*
X41951Y38049D01*
X40151Y36249D01*
X39952Y35951D01*
X39882Y35600D01*
Y32500D01*
Y24191D01*
X39719Y24081D01*
X39387Y23585D01*
X39271Y23000D01*
X39387Y22415D01*
X39452Y22318D01*
X39185Y21818D01*
X21900D01*
X21549Y21748D01*
X21251Y21549D01*
X10190Y10488D01*
X10068Y10581D01*
X9070Y10994D01*
X8000Y11135D01*
X6930Y10994D01*
X5932Y10581D01*
X5076Y9924D01*
X4419Y9068D01*
X4005Y8070D01*
X3865Y7000D01*
X4005Y5930D01*
X4419Y4932D01*
X5076Y4076D01*
X5932Y3419D01*
X6930Y3005D01*
X8000Y2865D01*
X9070Y3005D01*
X10068Y3419D01*
X10924Y4076D01*
X11581Y4932D01*
X11994Y5930D01*
X12135Y7000D01*
X11994Y8070D01*
X11581Y9068D01*
X11488Y9190D01*
X22280Y19982D01*
X29431D01*
X29623Y19520D01*
X20416Y10314D01*
X20068Y10581D01*
X19070Y10994D01*
X18000Y11135D01*
X16930Y10994D01*
X15932Y10581D01*
X15076Y9924D01*
X14419Y9068D01*
X14006Y8070D01*
X13865Y7000D01*
X14006Y5930D01*
X14419Y4932D01*
X15076Y4076D01*
X15932Y3419D01*
X16930Y3005D01*
X18000Y2865D01*
X19070Y3005D01*
X20068Y3419D01*
X20924Y4076D01*
X21581Y4932D01*
X21994Y5930D01*
X22135Y7000D01*
X21994Y8070D01*
X21635Y8937D01*
X31480Y18782D01*
X38431D01*
X38623Y18320D01*
X30529Y10227D01*
X30068Y10581D01*
X29070Y10994D01*
X28000Y11135D01*
X26930Y10994D01*
X25932Y10581D01*
X25076Y9924D01*
X24419Y9068D01*
X24005Y8070D01*
X23865Y7000D01*
X24005Y5930D01*
X24419Y4932D01*
X25076Y4076D01*
X25932Y3419D01*
X26930Y3005D01*
X28000Y2865D01*
X29070Y3005D01*
X30068Y3419D01*
X30924Y4076D01*
X31581Y4932D01*
X31995Y5930D01*
X32135Y7000D01*
X31995Y8070D01*
X31694Y8796D01*
X40480Y17582D01*
X46631D01*
X46823Y17120D01*
X40190Y10488D01*
X40068Y10581D01*
X39070Y10994D01*
X38000Y11135D01*
X36930Y10994D01*
X35932Y10581D01*
X35076Y9924D01*
X34419Y9068D01*
X34005Y8070D01*
X33865Y7000D01*
X34005Y5930D01*
X34419Y4932D01*
X35076Y4076D01*
X35932Y3419D01*
X36930Y3005D01*
X38000Y2865D01*
X39070Y3005D01*
X40068Y3419D01*
X40924Y4076D01*
X41581Y4932D01*
X41995Y5930D01*
X42135Y7000D01*
X41995Y8070D01*
X41581Y9068D01*
X41488Y9190D01*
X48680Y16382D01*
X53738D01*
X53797Y16299D01*
X53676Y15620D01*
X53619Y15581D01*
X53287Y15085D01*
X53171Y14500D01*
X53287Y13915D01*
X53619Y13419D01*
X54115Y13087D01*
X54700Y12971D01*
X54726Y12976D01*
X56351Y11351D01*
X56402Y11317D01*
X56346Y10753D01*
X55932Y10581D01*
X55076Y9924D01*
X54419Y9068D01*
X54005Y8070D01*
X53865Y7000D01*
X54005Y5930D01*
X54419Y4932D01*
X55076Y4076D01*
X55932Y3419D01*
X56930Y3005D01*
X58000Y2865D01*
X59070Y3005D01*
X60068Y3419D01*
X60924Y4076D01*
X61581Y4932D01*
X61994Y5930D01*
X62135Y7000D01*
X61994Y8070D01*
X61581Y9068D01*
X60924Y9924D01*
X60068Y10581D01*
X60065Y10582D01*
X60165Y11082D01*
X62620D01*
X64512Y9190D01*
X64419Y9068D01*
X64006Y8070D01*
X63865Y7000D01*
X64006Y5930D01*
X64419Y4932D01*
X65076Y4076D01*
X65932Y3419D01*
X66930Y3005D01*
X68000Y2865D01*
X69070Y3005D01*
X70068Y3419D01*
X70924Y4076D01*
X71581Y4932D01*
X71995Y5930D01*
X72135Y7000D01*
X71995Y8070D01*
X71581Y9068D01*
X70924Y9924D01*
X70068Y10581D01*
X69070Y10994D01*
X68000Y11135D01*
X66930Y10994D01*
X65932Y10581D01*
X65810Y10488D01*
X63649Y12649D01*
X63351Y12848D01*
X63000Y12918D01*
X57380D01*
X56158Y14140D01*
X56229Y14500D01*
X56113Y15085D01*
X55781Y15581D01*
X55724Y15620D01*
X55603Y16299D01*
X55662Y16382D01*
X61000D01*
X61351Y16452D01*
X61649Y16651D01*
X64649Y19651D01*
X64848Y19949D01*
X64918Y20300D01*
Y27409D01*
X65081Y27519D01*
X65413Y28015D01*
X65529Y28600D01*
X65413Y29185D01*
X65081Y29681D01*
X64585Y30013D01*
X64000Y30129D01*
X63415Y30013D01*
X62919Y29681D01*
X62587Y29185D01*
X62471Y28600D01*
X62479Y28558D01*
X62125Y28204D01*
X62000Y28229D01*
X61415Y28113D01*
X60919Y27781D01*
X60587Y27285D01*
X60471Y26700D01*
X60492Y26590D01*
X55720Y21818D01*
X42415D01*
X42148Y22318D01*
X42213Y22415D01*
X42329Y23000D01*
X42213Y23585D01*
X41881Y24081D01*
X41718Y24191D01*
Y31582D01*
X44509D01*
X44619Y31419D01*
X45115Y31087D01*
X45700Y30971D01*
X46285Y31087D01*
X46781Y31419D01*
X47113Y31915D01*
X47229Y32500D01*
X47113Y33085D01*
X46781Y33581D01*
X46285Y33913D01*
X45700Y34029D01*
X45115Y33913D01*
X44619Y33581D01*
X44509Y33418D01*
X41718D01*
Y35220D01*
X42980Y36482D01*
X55309D01*
X55419Y36319D01*
X55915Y35987D01*
X56500Y35871D01*
X57085Y35987D01*
X57581Y36319D01*
X57913Y36815D01*
X58029Y37400D01*
X57913Y37985D01*
X58233Y38407D01*
X58272Y38399D01*
X58857Y38515D01*
X59353Y38847D01*
X59719Y38883D01*
X67782Y30820D01*
Y16300D01*
X67852Y15949D01*
X68051Y15651D01*
X74512Y9190D01*
X74419Y9068D01*
X74006Y8070D01*
X73865Y7000D01*
X74006Y5930D01*
X74419Y4932D01*
X75076Y4076D01*
X75932Y3419D01*
X76930Y3005D01*
X78000Y2865D01*
X79070Y3005D01*
X80068Y3419D01*
X80924Y4076D01*
X81581Y4932D01*
X81994Y5930D01*
X82135Y7000D01*
X81994Y8070D01*
X81581Y9068D01*
X80924Y9924D01*
X80068Y10581D01*
X79070Y10994D01*
X78000Y11135D01*
X76930Y10994D01*
X75932Y10581D01*
X75810Y10488D01*
X69618Y16680D01*
Y31200D01*
X69548Y31551D01*
X69349Y31849D01*
X61018Y40180D01*
Y42500D01*
X60948Y42851D01*
X60749Y43149D01*
X58049Y45849D01*
X57751Y46048D01*
X57400Y46118D01*
X51480D01*
X47480Y50117D01*
Y60782D01*
X47644Y60891D01*
X47976Y61387D01*
X48092Y61972D01*
X47976Y62558D01*
X47644Y63054D01*
X47148Y63385D01*
X46864Y63442D01*
X46630Y63986D01*
X46753Y64166D01*
X46940Y64161D01*
X46955Y64159D01*
X47400Y64071D01*
X47985Y64187D01*
X48481Y64519D01*
X48591Y64682D01*
X57109D01*
X57219Y64519D01*
X57715Y64187D01*
X58300Y64071D01*
X58885Y64187D01*
X59381Y64519D01*
X59713Y65015D01*
X59829Y65600D01*
X59713Y66185D01*
X59581Y66382D01*
X59841Y66868D01*
X60312Y66878D01*
X60419Y66719D01*
X60915Y66387D01*
X61500Y66271D01*
X62085Y66387D01*
X62581Y66719D01*
X62798Y67043D01*
X63376Y67172D01*
X63397Y67151D01*
X63694Y66952D01*
X64046Y66882D01*
X67384D01*
X67694Y66508D01*
X67311Y66268D01*
X67000Y66329D01*
X66415Y66213D01*
X65919Y65881D01*
X65678Y65521D01*
X65596Y65497D01*
X65205D01*
X65122Y65521D01*
X64881Y65881D01*
X64385Y66213D01*
X63800Y66329D01*
X63215Y66213D01*
X62719Y65881D01*
X62387Y65385D01*
X62271Y64800D01*
X62387Y64215D01*
X62719Y63719D01*
X63215Y63387D01*
X63800Y63271D01*
X63993Y63309D01*
X64882Y62420D01*
Y48903D01*
X64952Y48552D01*
X64982Y48507D01*
Y45691D01*
X64519Y45381D01*
X64187Y44885D01*
X64071Y44300D01*
X64187Y43715D01*
X64519Y43219D01*
X65015Y42887D01*
X65600Y42771D01*
X66150Y42880D01*
X66251Y42801D01*
X66490Y42489D01*
X66287Y42185D01*
X66171Y41600D01*
X66287Y41015D01*
X66619Y40519D01*
X67115Y40187D01*
X67700Y40071D01*
X68285Y40187D01*
X68781Y40519D01*
X69113Y41015D01*
X69229Y41600D01*
X69164Y41930D01*
X69218Y42200D01*
Y46274D01*
X70149Y47206D01*
X70348Y47503D01*
X70418Y47854D01*
Y48777D01*
X70918Y48985D01*
X76851Y43051D01*
X77149Y42852D01*
X77500Y42782D01*
X80409D01*
X80519Y42619D01*
X81015Y42287D01*
X81600Y42171D01*
X82185Y42287D01*
X82681Y42619D01*
X83013Y43115D01*
X83129Y43700D01*
X83013Y44285D01*
X82681Y44781D01*
X82185Y45113D01*
X81600Y45229D01*
X81015Y45113D01*
X80519Y44781D01*
X80409Y44618D01*
X77880D01*
X70318Y52180D01*
Y61320D01*
X72057Y63060D01*
X72557Y62853D01*
Y54463D01*
X83531D01*
X83831Y53963D01*
X83778Y53700D01*
Y48700D01*
X83864Y48271D01*
X84107Y47907D01*
X84471Y47664D01*
X84900Y47578D01*
X95335D01*
Y1122D01*
X1122D01*
Y20452D01*
X14743D01*
Y27558D01*
X1122D01*
Y46043D01*
X14743D01*
Y53148D01*
X1122D01*
Y95335D01*
X40639D01*
X40957Y94835D01*
D02*
G37*
%LPC*%
G36*
X88000Y11135D02*
X86930Y10994D01*
X85932Y10581D01*
X85076Y9924D01*
X84419Y9068D01*
X84005Y8070D01*
X83865Y7000D01*
X84005Y5930D01*
X84419Y4932D01*
X85076Y4076D01*
X85932Y3419D01*
X86930Y3005D01*
X88000Y2865D01*
X89070Y3005D01*
X90068Y3419D01*
X90924Y4076D01*
X91581Y4932D01*
X91995Y5930D01*
X92135Y7000D01*
X91995Y8070D01*
X91581Y9068D01*
X90924Y9924D01*
X90068Y10581D01*
X89070Y10994D01*
X88000Y11135D01*
D02*
G37*
G36*
X48000D02*
X46930Y10994D01*
X45932Y10581D01*
X45076Y9924D01*
X44419Y9068D01*
X44006Y8070D01*
X43865Y7000D01*
X44006Y5930D01*
X44419Y4932D01*
X45076Y4076D01*
X45932Y3419D01*
X46930Y3005D01*
X48000Y2865D01*
X49070Y3005D01*
X50068Y3419D01*
X50924Y4076D01*
X51581Y4932D01*
X51995Y5930D01*
X52135Y7000D01*
X51995Y8070D01*
X51581Y9068D01*
X50924Y9924D01*
X50068Y10581D01*
X49070Y10994D01*
X48000Y11135D01*
D02*
G37*
G36*
X8844Y72081D02*
X3707D01*
Y68596D01*
X2038D01*
Y62672D01*
X7738D01*
Y61365D01*
X7788Y61112D01*
X7931Y60897D01*
X8146Y60753D01*
X8400Y60703D01*
X10663D01*
X10917Y60753D01*
X11131Y60897D01*
X11275Y61112D01*
X11325Y61365D01*
Y63235D01*
X11275Y63488D01*
X11131Y63703D01*
X10917Y63847D01*
X10663Y63897D01*
X9232D01*
X7962Y65167D01*
Y68519D01*
X8844D01*
Y72081D01*
D02*
G37*
G36*
X22906Y60568D02*
X18557D01*
Y60053D01*
X18276Y59916D01*
X18057Y59862D01*
X17888Y59975D01*
X17635Y60025D01*
X15765D01*
X15512Y59975D01*
X15297Y59831D01*
X15153Y59617D01*
X15103Y59363D01*
Y57100D01*
X15153Y56846D01*
X15297Y56631D01*
X15512Y56488D01*
X15765Y56438D01*
X17635D01*
X17888Y56488D01*
X18057Y56600D01*
X18121Y56585D01*
X18557Y56415D01*
X18557Y56415D01*
X18557Y56415D01*
X22906D01*
Y60568D01*
D02*
G37*
G36*
X26843D02*
X24462D01*
Y56415D01*
X24735D01*
Y55818D01*
X7962D01*
Y60328D01*
X2038D01*
Y54404D01*
X6064D01*
X6217Y54251D01*
X6515Y54052D01*
X6866Y53982D01*
X25300D01*
X25651Y54052D01*
X25949Y54251D01*
X26302Y54604D01*
X26500Y54902D01*
X26570Y55253D01*
Y56415D01*
X26843D01*
Y60568D01*
D02*
G37*
%LPD*%
D18*
X80500Y80653D02*
D03*
Y74747D02*
D03*
X30400Y68747D02*
D03*
Y74653D02*
D03*
D26*
X41700Y65245D02*
D03*
Y74300D02*
D03*
X35700Y65245D02*
D03*
Y74300D02*
D03*
D27*
X68154Y76354D02*
Y79000D01*
X68100Y76300D02*
X68154Y76354D01*
X43000Y58200D02*
X43500Y58700D01*
X38874Y57800D02*
X45600Y64526D01*
X43500Y46000D02*
Y58700D01*
X78785Y70100D02*
X79855D01*
X72175Y76711D02*
Y81475D01*
Y76711D02*
X78785Y70100D01*
X56200Y77506D02*
X62006Y71700D01*
X57400Y78003D02*
X62503Y72900D01*
X63600Y71700D02*
X65200Y70100D01*
X62006Y71700D02*
X63600D01*
X66000Y72900D02*
X67000Y71900D01*
X62503Y72900D02*
X66000D01*
X71419Y74100D02*
X73400Y72119D01*
X63000Y74100D02*
X71419D01*
X59200Y77900D02*
X63000Y74100D01*
X73400Y65700D02*
Y72119D01*
X69400Y61700D02*
X73400Y65700D01*
X69080Y93639D02*
X69679Y93039D01*
X64400Y93639D02*
X69080D01*
X64400Y85200D02*
Y93639D01*
X74700Y84000D02*
Y87200D01*
X72175Y81475D02*
X74700Y84000D01*
X36500Y60000D02*
Y65100D01*
X69600Y64854D02*
Y65900D01*
X68200Y63454D02*
X69600Y64854D01*
X69400Y51800D02*
Y61700D01*
X54700Y14300D02*
Y14500D01*
Y14300D02*
X57000Y12000D01*
X48300Y17300D02*
X61000D01*
X57803Y18500D02*
X60403Y21100D01*
X40100Y18500D02*
X57803D01*
X57306Y19700D02*
X60200Y22594D01*
X31100Y19700D02*
X57306D01*
X56100Y20900D02*
X61900Y26700D01*
X21900Y20900D02*
X56100D01*
X60403Y21100D02*
X62200D01*
X60200Y22594D02*
X60994D01*
X61900Y26700D02*
X62000D01*
X38000Y7000D02*
X48300Y17300D01*
X28600Y7000D02*
X40100Y18500D01*
X18400Y7000D02*
X31100Y19700D01*
X8000Y7000D02*
X21900Y20900D01*
X61000Y17300D02*
X64000Y20300D01*
Y28600D01*
X62100Y23700D02*
Y24100D01*
X60994Y22594D02*
X62100Y23700D01*
X68700Y16300D02*
Y31200D01*
X60100Y39800D02*
X68700Y31200D01*
X60100Y39800D02*
Y42500D01*
X68700Y16300D02*
X78000Y7000D01*
X40800Y32500D02*
Y35600D01*
Y23000D02*
Y32500D01*
X45700D01*
X77500Y43700D02*
X81600D01*
X69400Y51800D02*
X77500Y43700D01*
X68200Y50646D02*
Y63454D01*
Y50646D02*
X69500Y49346D01*
X68300Y46654D02*
X69500Y47854D01*
X68300Y42200D02*
Y46654D01*
X69500Y47854D02*
Y49346D01*
X67700Y41600D02*
X68300Y42200D01*
X63800Y64800D02*
X65800Y62800D01*
Y48903D02*
Y62800D01*
Y48903D02*
X65900Y48803D01*
Y44600D02*
Y48803D01*
X67000Y49400D02*
Y64800D01*
Y49400D02*
X67800Y48600D01*
X24500Y74200D02*
X26453D01*
X24500D02*
Y74700D01*
X26453Y74200D02*
X29947D01*
X30400Y74653D01*
X13468Y62300D02*
X13600Y62169D01*
X16700D01*
X25653Y55253D02*
Y58491D01*
X25300Y54900D02*
X25653Y55253D01*
X6866Y54900D02*
X25300D01*
X4400Y57366D02*
X6866Y54900D01*
X38700Y37200D02*
X41428Y39928D01*
X22000Y37200D02*
X38700D01*
X19200Y40000D02*
X22000Y37200D01*
X30400Y42000D02*
X31663Y40737D01*
X57400Y45200D02*
X60100Y42500D01*
X51100Y45200D02*
X57400D01*
X46563Y49737D02*
X51100Y45200D01*
X46563Y49737D02*
Y61972D01*
X43500Y46000D02*
X47600Y41900D01*
X55700D01*
X41428Y39928D02*
X58272D01*
X59657Y84000D02*
X61000D01*
X56200Y80543D02*
X59657Y84000D01*
X56200Y77506D02*
Y80543D01*
X65600Y44300D02*
X65900Y44600D01*
X47800Y70100D02*
X61746D01*
X64046Y67800D01*
X68000D01*
X70300Y70100D01*
X70800D01*
X67700Y48600D02*
X67800D01*
X57400Y78003D02*
Y80046D01*
X58454Y81100D01*
X64444D01*
X65316Y81972D01*
X65000Y81300D02*
X65316Y81616D01*
Y81972D01*
X59200Y77900D02*
Y79300D01*
X68154Y79000D02*
Y82846D01*
X67228Y83772D02*
X68154Y82846D01*
X65828Y83772D02*
X67228D01*
X64400Y85200D02*
X65828Y83772D01*
X12700Y40000D02*
X19200D01*
X42600Y37400D02*
X56500D01*
X40800Y35600D02*
X42600Y37400D01*
X45600Y67900D02*
X47800Y70100D01*
X47400Y65600D02*
X58300D01*
X48600Y67800D02*
X61500D01*
X48400Y68000D02*
X48600Y67800D01*
X45600Y64526D02*
Y67900D01*
X30400Y57800D02*
X38874D01*
X73100Y90500D02*
X74500Y91900D01*
X70259Y90500D02*
X73100D01*
X30400Y57800D02*
Y68747D01*
Y42000D02*
Y57800D01*
X44182Y93639D02*
X64400D01*
X69679Y87920D02*
X73980D01*
X74700Y87200D01*
X87768Y87920D02*
X92120D01*
X80500Y80653D02*
X87768Y87920D01*
X78847Y79000D02*
X80500Y80653D01*
X74847Y79000D02*
X78847D01*
X86554Y79100D02*
Y82553D01*
X89361Y85361D01*
X92120D01*
X42411Y94457D02*
X43011Y95057D01*
X73600D01*
X43500Y92957D02*
X44182Y93639D01*
X73600Y95057D02*
X74500Y94157D01*
Y91900D02*
Y94157D01*
X43500Y90500D02*
Y92957D01*
X18000Y7000D02*
X18400D01*
X28000D02*
X28600D01*
X31000Y68647D02*
X36500Y74147D01*
X29739Y69909D02*
X31000Y68647D01*
X79855Y62145D02*
X83000Y59000D01*
X79855Y62145D02*
Y70100D01*
X43500Y77900D02*
X44372Y77028D01*
X42500Y65145D02*
X44372Y67017D01*
Y77028D01*
X43500Y77900D02*
Y90500D01*
X19747Y73400D02*
X20547Y74200D01*
X19747Y69909D02*
Y73400D01*
X36500Y74147D02*
Y74200D01*
X25653Y69909D02*
X29739D01*
X23684D02*
X25653D01*
X19747D02*
X21716D01*
X19487Y58232D02*
X19747Y58491D01*
X16700Y58232D02*
X19487D01*
X4400Y65634D02*
X6198D01*
X9532Y62300D01*
X57000Y12000D02*
X63000D01*
X68000Y7000D01*
X15882Y78818D02*
Y80976D01*
Y78818D02*
X20500Y74200D01*
X20547D01*
X17209Y69909D02*
X19747D01*
X15724Y68424D02*
X17209Y69909D01*
X15724Y66560D02*
Y68424D01*
D28*
X36500Y65100D02*
X41345D01*
D29*
X23200Y77100D02*
X40400D01*
X20547Y74447D02*
X23200Y77100D01*
X40400D02*
X42500Y75000D01*
D30*
X8000Y7000D02*
D03*
X18000D02*
D03*
X28000D02*
D03*
X38000D02*
D03*
X48000D02*
D03*
X58000D02*
D03*
X68000D02*
D03*
X78000D02*
D03*
X88000D02*
D03*
X49100Y89100D02*
D03*
D31*
X59100D02*
D03*
D32*
X32400Y74500D02*
D03*
X32600Y81400D02*
D03*
X83000Y88500D02*
D03*
X80400Y77500D02*
D03*
X68100Y76300D02*
D03*
X43000Y58200D02*
D03*
X82500Y66100D02*
D03*
X76500D02*
D03*
X83000Y21400D02*
D03*
X54700Y14500D02*
D03*
X62200Y21100D02*
D03*
X62100Y24100D02*
D03*
X62000Y26700D02*
D03*
X64000Y28600D02*
D03*
X45700Y32500D02*
D03*
X90800Y81400D02*
D03*
X47638Y35338D02*
D03*
X24500Y74700D02*
D03*
X67700Y41600D02*
D03*
X46563Y61972D02*
D03*
X55700Y41900D02*
D03*
X58272Y39928D02*
D03*
X65200Y70100D02*
D03*
X63800Y64800D02*
D03*
X65600Y44300D02*
D03*
X67000Y71900D02*
D03*
Y64800D02*
D03*
X67700Y48600D02*
D03*
X61000Y84000D02*
D03*
X65316Y81972D02*
D03*
X59200Y79300D02*
D03*
X69600Y65900D02*
D03*
X12700Y40000D02*
D03*
X56500Y37400D02*
D03*
X40800Y23000D02*
D03*
X81600Y43700D02*
D03*
X47400Y65600D02*
D03*
X58300D02*
D03*
X61500Y67800D02*
D03*
X48400Y68000D02*
D03*
X85400Y94000D02*
D03*
X42411Y94457D02*
D03*
X36500Y60000D02*
D03*
X43500Y90500D02*
D03*
D33*
X54665Y27665D02*
D03*
Y23335D02*
D03*
X50335Y27665D02*
D03*
Y23335D02*
D03*
X22700Y66168D02*
D03*
Y62231D02*
D03*
X58665Y51835D02*
D03*
X54335D02*
D03*
X58665Y56165D02*
D03*
X54335D02*
D03*
D34*
X83000Y22386D02*
D03*
D35*
Y59000D02*
D03*
D36*
X79855Y70100D02*
D03*
X70800D02*
D03*
D37*
X74847Y79000D02*
D03*
X68154D02*
D03*
X93247Y79100D02*
D03*
X86554D02*
D03*
D38*
X92120Y93039D02*
D03*
Y90479D02*
D03*
Y87920D02*
D03*
Y85361D02*
D03*
X69679Y93039D02*
D03*
Y90479D02*
D03*
Y87920D02*
D03*
Y85361D02*
D03*
D39*
X20547Y74200D02*
D03*
X26453D02*
D03*
D40*
X5000Y65634D02*
D03*
Y57366D02*
D03*
D41*
X6276Y70300D02*
D03*
X15724Y66560D02*
D03*
Y74040D02*
D03*
D42*
X33205Y81764D02*
D03*
X8795D02*
D03*
D43*
X5252Y91606D02*
D03*
X36748D02*
D03*
D44*
X26118Y80976D02*
D03*
X23559D02*
D03*
X21000D02*
D03*
X18441D02*
D03*
X15882D02*
D03*
D45*
X16700Y58232D02*
D03*
Y62169D02*
D03*
D46*
X9532Y62300D02*
D03*
X13468D02*
D03*
D47*
X19747Y69909D02*
D03*
X21716D02*
D03*
X23684D02*
D03*
X25653D02*
D03*
Y58491D02*
D03*
X23684D02*
D03*
X21716D02*
D03*
X19747D02*
D03*
D48*
X22700Y64200D02*
D03*
D49*
X31663Y32864D02*
D03*
Y40737D02*
D03*
D50*
X7451Y24005D02*
D03*
Y49596D02*
D03*
M02*
