M48
;Layer_Color=9474304
;FILE_FORMAT=2:5
INCH,LZ
;TYPE=PLATED
T1F00S00C0.00787
T2F00S00C0.01200
T3F00S00C0.01300
T4F00S00C0.03700
%
T01
X0050335Y0023335
X0054665
Y0027665
X0050335
X0054335Y0051835
X0058665
Y0056165
X0054335
X00227Y0062231
Y0066168
T02
X00127Y004
X0047638Y0035338
X00457Y00325
X00408Y0023
X00547Y00145
X00622Y00211
X0062Y00267
X0064Y00286
X00565Y00374
X0058272Y0039928
X00557Y00419
X00677Y00416
X00656Y00443
X00677Y00486
X0067Y00648
X00638
X00615Y00678
X00583Y00656
X00474
X00484Y0068
X0046563Y0061972
X0043Y00582
X00365Y006
X00324Y00745
X00326Y00814
X00245Y00747
X00592Y00793
X0061Y0084
X0065316Y0081972
X00681Y00763
X0067Y00719
X00652Y00701
X00696Y00659
X00765Y00661
X00825
X00804Y00775
X00908Y00814
X00816Y00437
X0083Y00214
Y00885
X00854Y0094
X0042411Y0094457
X00435Y00905
T03
X00621Y00241
T04
X0008Y0007
X0018
X0028
X0038
X0048
X0058
X0068
X0078
X0088
X00591Y00891
X00491
M30
